<svg width="512" height="400" xmlns="http://www.w3.org/2000/svg">
 <!-- Created with Method Draw - http://github.com/duopixel/Method-Draw/ -->
 <g>
  <title>background</title>
  <rect fill="#fff" id="canvas_background" height="402" width="514" y="-1" x="-1"/>
  <g display="none" overflow="visible" y="0" x="0" height="100%" width="100%" id="canvasGrid">
   <rect fill="url(#gridpattern)" stroke-width="0" y="0" x="0" height="100%" width="100%"/>
  </g>
 </g>
 <g>
  <title>Layer 1</title>
  <path id="svg_18" d="m359.342712,269.929626c-10.074036,-1.661987 -20.556213,-2.759918 -29.078186,-3.062622l-1.498535,-0.050507c0.344299,-0.741974 0.601624,-1.24649 0.692444,-1.323669c0.177917,-0.136505 0.333008,-0.768616 0.344421,-1.385925c0,-0.338318 0.15509,-1.436432 0.382141,-2.884735c2.319763,0.074158 5.37738,0.151306 8.71875,0.175049c12.889526,0.100922 26.376221,1.121857 35.632202,2.736359c5.502258,0.958649 7.318665,0.920013 3.262024,-0.050415c-4.120911,-0.982391 -16.332458,-2.433624 -26.069031,-3.062805c-6.528381,-0.442261 -15.897949,-0.605438 -21.415222,-0.504517c0.155151,-0.946808 0.333008,-1.991516 0.537292,-3.074738c0.783386,-4.146103 1.036926,-8.330765 1.052063,-16.649582c0.011353,-12.907166 -0.692505,-16.447784 -4.952148,-24.980164c-1.740723,-3.493164 -3.700928,-6.440186 -6.081116,-9.126129c2.07373,-6.024506 2.024475,-15.33757 -0.113464,-23.516922c-1.778625,-6.707291 -2.395508,-7.14653 -8.574951,-5.849594c-5.233643,1.098114 -9.419006,2.596848 -14.796143,5.256027c-2.546936,1.261337 -6.054688,3.226044 -8.586487,4.778214c-6.629883,-2.294128 -13.490479,-3.819595 -20.797882,-4.638718c-7.411774,-0.819122 -25.598969,-0.365051 -32.04718,0.819122c-6.296875,1.145584 -11.980743,2.546402 -17.127197,4.208389c-2.558105,-1.54921 -6.281769,-3.668243 -8.945831,-4.977066c-5.400208,-2.685898 -9.596832,-4.17276 -14.845581,-5.267899c-6.155273,-1.299896 -6.7948,-0.857697 -8.546875,5.846634c-2.191071,8.280258 -2.202393,17.771378 -0.052979,23.76918c0.257324,0.694458 0.408691,1.172272 0.46167,1.552216c-8.741455,10.838501 -11.583374,22.962006 -9.6875,39.890594c0.484375,4.410187 1.252563,8.455307 2.315918,12.174088c-5.581757,-0.038605 -13.517212,0.163208 -19.235107,0.516418c-9.755615,0.643982 -21.963379,2.068542 -26.084351,3.050934c-4.056488,0.9823 -2.255188,1.009064 3.261963,0.062286c9.252319,-1.59964 22.758057,-2.647308 35.631866,-2.733337c2.433319,-0.014893 4.711426,-0.065308 6.667816,-0.115784c0.575195,1.967712 1.256348,3.831512 2.024567,5.609192l-0.064392,0c-8.510681,0.290863 -18.992889,1.400635 -29.066376,3.062622c-7.553223,1.249512 -18.712769,3.742523 -20.018127,4.463623c-1.354736,0.741943 -0.242188,0.578827 5.604187,-0.88443c10.675171,-2.65918 24.56311,-4.70105 41.762329,-6.110504l1.922333,-0.166199c3.685822,8.431366 9.365845,14.886261 17.401947,19.901886c4.91571,3.086548 12.802063,6.247223 16.767914,6.739899c1.089844,0.124634 4.260986,0.768738 7.038574,1.4245c2.792694,0.641052 8.25708,1.599792 12.135864,2.154724l0.087036,0c-0.075684,0.050476 -0.140015,0.08902 -0.204346,0.139526c-4.696198,2.394928 -7.757599,6.137482 -9.816193,12.034485c-0.92334,0.26709 -2.062378,0.644104 -3.303589,1.05957c-4.438812,1.486816 -6.168213,1.789551 -10.660034,1.828186c-4.669678,0.038513 -5.770905,-0.1633 -8.563812,-1.448303c-4.041473,-1.866821 -7.818146,-5.282715 -10.336853,-9.366455c-4.200409,-6.81723 -11.469818,-11.642883 -17.524597,-11.642883c-5.169189,0 -6.153076,2.065613 -2.418091,5.078033c5.646088,4.537689 9.857849,9.161621 11.583466,12.69046c0.972534,1.991333 2.455933,5.054138 3.326294,6.805145c0.911987,1.878723 2.868408,4.42514 4.722626,6.190918c4.391937,4.107513 8.615112,6.072205 14.923462,6.99527c4.223145,0.617218 5.26001,0.617218 10.251404,-0.014893c2.406738,-0.287842 4.442627,-0.629211 6.259003,-1.044678c0,2.015137 0,4.335968 0,7.057434c0,14.595825 -0.177856,19.282043 -0.768188,20.656128c-1.101166,2.608398 -3.583588,5.294342 -6.001709,6.490356c-2.406738,1.210876 -3.148438,2.546387 -2.138062,3.769135c0.563843,0.655975 1.649933,0.768738 5.271362,0.543182c6.89856,-0.430389 11.776398,-2.938141 14.25882,-7.360229c0.794678,-1.424316 0.972534,-4.285309 1.229858,-19.145172c0.268677,-16.133087 0.382202,-17.682312 1.456909,-19.988403c0.643311,-1.374054 1.574188,-2.860992 2.088837,-3.264618c0.881744,-0.70636 0.934723,0.691589 0.934723,19.988403c-0.015137,21.287964 -0.230865,23.858063 -2.395386,27.953705c-0.484375,0.934814 -1.407715,2.154663 -2.047241,2.736359c-1.139038,1.009064 -1.612091,3.617645 -0.817413,4.398224c1.290436,1.273193 7.806763,-0.72995 11.363892,-3.490082c6.054749,-4.727814 6.781311,-8.633514 6.83429,-36.842499l0.026489,-16.560455l1.827759,0.178101l1.843262,0.1633l0.295166,21.65329c0.348145,24.374481 0.397278,24.72757 4.607819,29.440521c2.391571,2.659149 4.798279,4.122437 8.714874,5.267883c5.248779,1.564087 6.822998,-0.830933 3.30365,-4.988892c-3.841034,-4.525909 -4.018829,-6.253174 -3.814484,-32.996002c0.139954,-17.142181 0.139954,-17.142181 1.26767,-16.148041c2.365173,2.119049 2.81543,5.58548 2.81543,21.668213c0,19.976166 0.575195,21.878448 7.742432,25.35675c3.352783,1.614532 4.287659,1.816345 8.574951,1.828217c4.556152,0.011871 4.836182,-0.050385 5.002686,-1.222748c0.140198,-0.946655 -0.419861,-1.599579 -2.54657,-2.872864c-2.789124,-1.688629 -4.734192,-3.858215 -5.94873,-6.579376c-0.46167,-1.059479 -0.768372,-7.927063 -0.976318,-22.080688c-0.306702,-19.762695 -0.37085,-20.658997 -1.623596,-23.760437c-1.687744,-4.157837 -4.260986,-7.446228 -7.526611,-9.627686c-0.843994,-0.54303 -1.687744,-0.997131 -2.789063,-1.335449c1.343506,-0.139465 2.6604,-0.278992 3.927979,-0.454041c13.184082,-1.727295 20.158508,-3.163727 25.751465,-5.294617c11.825562,-4.484467 19.83667,-11.930664 24.165771,-22.504944c0.393555,-0.934784 0.779602,-1.827972 1.095947,-2.546204l3.341492,0.264191c17.202881,1.436279 31.087463,3.478119 41.762756,6.137329c5.86145,1.463043 6.97406,1.638245 5.608032,0.869476c-1.282898,-0.691406 -12.431152,-3.187439 -19.980347,-4.436829zm-50.449829,-0.25235c-1.945129,4.235199 -7.398071,9.669067 -11.802795,11.797028c-4.351807,2.119019 -11.159729,3.718628 -18.875549,4.487335c-5.275208,0.52829 -34.696289,0.694489 -39.562744,0.213684c-16.075195,-1.549194 -25.085327,-4.600128 -31.726593,-10.698883c-6.285645,-5.799164 -9.225983,-13.675598 -8.715088,-23.353714c0.333008,-6.063324 1.816406,-9.871033 5.69516,-14.494934c3.530823,-4.223236 7.258209,-6.820099 11.632751,-8.143738c3.663086,-1.107056 14.909668,-1.207947 30.038818,-0.249329c6.682922,0.427399 12.211975,0.427399 18.878357,0c15.817932,-0.985321 26.375854,-0.869598 30.281128,0.314606c6.130371,1.863831 11.723389,6.894287 15.076172,13.586792c1.509766,2.985657 1.804993,4.25882 2.020752,8.870819c0.295105,6.366043 -0.817383,13.120895 -2.940369,17.670334zm-79.762085,-27.30986c-8.998779,-1.552155 -14.141479,13.622375 -7.24292,21.374405c3.288452,3.668243 6.194702,4.273682 9.842651,2.04187c3.364166,-2.065613 5.195709,-5.94754 5.195709,-10.966171c0,-6.704376 -3.099274,-11.61911 -7.795441,-12.450104zm54.62384,0.905243c-8.99884,-1.549255 -14.141693,13.613419 -7.242981,21.365433c3.28833,3.679932 6.19458,4.28537 9.842529,2.04187c3.364319,-2.068542 5.195862,-5.95047 5.195862,-10.966141c0,-6.680634 -3.099426,-11.62204 -7.79541,-12.441162zm-24.202393,29.847305c-0.189209,0.605438 -1.123962,1.510742 -2.085144,2.003387c-2.391602,1.210876 -4.121277,0.792328 -6.656677,-1.475098c-1.559113,-1.397797 -2.278107,-2.142792 -2.751099,-0.679565c-0.446533,1.359283 2.342377,4.083771 4.491821,4.914764c1.986694,0.768555 3.406128,0.79538 5.555542,-0.08902c2.126709,-0.86969 3.990936,-3.226166 3.990936,-4.751617c0,-1.424561 -2.068573,-1.359283 -2.54538,0.077148zm-2.660339,-4.751404c1.369873,-1.198853 1.676453,-3.644348 0.37085,-4.929474s-3.966125,-1.109955 -5.002991,0.353241c-1.218506,1.7005 -0.563843,3.000427 0.291382,4.374573c1.347168,1.020752 3.148804,1.234436 4.340759,0.20166z" fill-opacity="null" stroke-opacity="null" stroke-width="null" stroke="null" fill="null"/>
  <path id="svg_43" d="m414.170776,302.905121c0,4.500214 -4.436951,8.143829 -9.914063,8.143829l-63.487,0c-5.476624,0 -9.91394,-3.643616 -9.91394,-8.143829l0,-110.76297c0,-4.500214 4.437317,-8.143692 9.91394,-8.143692l63.487,0c5.477112,0 9.914063,3.643478 9.914063,8.143692l0,110.76297zm-235.047073,0c0,4.500214 -4.438126,8.143829 -9.913956,8.143829l-63.487976,0c-5.476349,0 -9.914276,-3.643616 -9.914276,-8.143829l0,-110.76297c0,-4.500214 4.437927,-8.143692 9.914276,-8.143692l63.487976,0c5.47583,0 9.913956,3.643478 9.913956,8.143692l0,110.76297zm76.700836,-300.35513c-114.882904,0 -208.141567,75.89098 -209.573807,169.94833l36.370819,0c1.179443,-77.73719 78.260834,-140.461571 173.202988,-140.461571c94.9431,0 172.023422,62.72438 173.189804,140.461571l36.370178,0c-1.417847,-94.05735 -94.703796,-169.94833 -209.559982,-169.94833zm-209.279015,256.106839l35.711174,0l0,-86.327972l-35.711174,0l0,86.327972zm382.173958,-86.34201l0,86.332672l37.029785,0l0,-86.332672l-37.029785,0z" fill-opacity="null" stroke-opacity="null" stroke-width="null" stroke="null" fill="null"/>
 </g>
</svg>