<svg width="512" height="400" xmlns="http://www.w3.org/2000/svg">
 <!-- Created with Method Draw - http://github.com/duopixel/Method-Draw/ -->
 <defs>
  <radialGradient r="0.5" cy="0.450781" cx="0.28125" spreadMethod="pad" id="svg_74">
   <stop offset="0" stop-color="#005fbf"/>
   <stop offset="0.476563" stop-color="#005fbf"/>
   <stop offset="1" stop-color="#ffa040"/>
  </radialGradient>
 </defs>
 <g>
  <title>background</title>
  <rect fill="#fff" id="canvas_background" height="402" width="514" y="-1" x="-1"/>
  <g display="none" overflow="visible" y="0" x="0" height="100%" width="100%" id="canvasGrid">
   <rect fill="url(#gridpattern)" stroke-width="0" y="0" x="0" height="100%" width="100%"/>
  </g>
 </g>
 <g>
  <title>Layer 1</title>
  <path id="svg_18" d="m367.422668,159.306641c-6.621216,-1.098022 -13.510712,-1.823395 -19.111847,-2.023376l-0.984924,-0.033371c0.226257,-0.490204 0.395386,-0.823517 0.455078,-0.874512c0.116974,-0.090179 0.218872,-0.507797 0.22641,-0.915634c0,-0.223511 0.101898,-0.949005 0.251129,-1.905853c1.524719,0.048996 3.534363,0.09996 5.730469,0.115646c8.471771,0.066681 17.335999,0.74118 23.419556,1.807831c3.616425,0.633347 4.810272,0.607819 2.144012,-0.03331c-2.708527,-0.649033 -10.73465,-1.607819 -17.134094,-2.023499c-4.290833,-0.292191 -10.449066,-0.399994 -14.075317,-0.333313c0.10199,-0.625534 0.218872,-1.315735 0.353119,-2.031387c0.514923,-2.739197 0.681549,-5.503876 0.691498,-10.999863c0.007477,-8.527359 -0.455139,-10.866516 -3.254852,-16.503578c-1.144104,-2.307823 -2.432465,-4.254829 -3.996857,-6.029343c1.362976,-3.980194 1.330597,-10.133041 -0.074585,-15.53688c-1.169006,-4.431305 -1.574463,-4.721497 -5.635956,-3.864647c-3.43985,0.725487 -6.190704,1.71566 -9.724884,3.472496c-1.673981,0.833321 -3.979492,2.13134 -5.643524,3.156815c-4.357544,-1.515663 -8.86673,-2.523491 -13.669586,-3.064659c-4.871429,-0.541168 -16.825104,-0.241173 -21.063263,0.541168c-4.138672,0.756851 -7.87442,1.682327 -11.256989,2.78035c-1.681335,-1.023514 -4.128723,-2.423492 -5.8797,-3.288185c-3.549347,-1.77449 -6.307617,-2.756821 -9.757385,-3.480339c-4.045609,-0.858803 -4.465958,-0.566658 -5.617508,3.862686c-1.440094,5.470505 -1.447556,11.74099 -0.034821,15.703545c0.169128,0.458801 0.268616,0.774483 0.303436,1.025497c-5.745407,7.160645 -7.613281,15.170235 -6.367203,26.354424c0.318359,2.913681 0.823257,5.586182 1.522156,8.04306c-3.66864,-0.025513 -8.884293,0.107819 -12.642426,0.341171c-6.411957,0.425461 -14.435608,1.366623 -17.14415,2.015656c-2.666153,0.648972 -1.482239,0.666656 2.143951,0.041153c6.081161,-1.056824 14.957916,-1.748993 23.419342,-1.805832c1.599304,-0.009842 3.096619,-0.043137 4.382462,-0.076492c0.378052,1.300003 0.825745,2.531357 1.330673,3.705811l-0.042313,0c-5.593719,0.192169 -12.483246,0.925354 -19.104126,2.023376c-4.964417,0.825516 -12.299118,2.47258 -13.157074,2.948975c-0.890411,0.490189 -0.15918,0.382416 3.683395,-0.584305c7.016342,-1.756836 16.144302,-3.105835 27.448624,-4.037018l1.263489,-0.109802c2.422531,5.570328 6.155762,9.834885 11.437561,13.148544c3.230865,2.039185 8.414276,4.12735 11.020844,4.452835c0.716309,0.082352 2.800568,0.507889 4.62616,0.941116c1.835541,0.423523 5.427032,1.056946 7.976379,1.423569l0.05722,0c-0.049744,0.03334 -0.092041,0.058807 -0.134308,0.092178c-3.086609,1.582245 -5.098724,4.05484 -6.451752,7.950806c-0.606873,0.176453 -1.35553,0.425537 -2.171326,0.700012c-2.91745,0.9823 -4.054108,1.182312 -7.006378,1.207825c-3.069183,0.025452 -3.792999,-0.10788 -5.628662,-0.956848c-2.656281,-1.233337 -5.138519,-3.490112 -6.793976,-6.18811c-2.760757,-4.503937 -7.538635,-7.692078 -11.518173,-7.692078c-3.397491,0 -4.044159,1.364685 -1.58931,3.354889c3.710922,2.99791 6.479156,6.052795 7.613312,8.384186c0.639206,1.315613 1.614182,3.339111 2.186234,4.495941c0.599426,1.241211 1.885269,2.923553 3.103989,4.090149c2.886627,2.713699 5.662354,4.011719 9.808563,4.621552c2.775696,0.407761 3.457184,0.407761 6.737823,-0.009842c1.581848,-0.19017 2.919952,-0.415695 4.1138,-0.690186c0,1.331329 0,2.864624 0,4.662628c0,9.64299 -0.116913,12.739029 -0.504913,13.646851c-0.723755,1.723282 -2.355347,3.497803 -3.944672,4.287964c-1.581848,0.799988 -2.069336,1.682312 -1.405243,2.490143c0.370575,0.43338 1.084412,0.507889 3.46463,0.358871c4.534149,-0.284348 7.740112,-1.941147 9.371704,-4.862671c0.522308,-0.940994 0.639221,-2.831161 0.80835,-12.648605c0.176575,-10.658615 0.25119,-11.682144 0.95755,-13.205704c0.422821,-0.907806 1.034668,-1.890167 1.372925,-2.15683c0.579529,-0.466675 0.614349,0.456909 0.614349,13.205704c-0.009949,14.06427 -0.151733,15.762268 -1.574402,18.468124c-0.318359,0.617599 -0.925232,1.423508 -1.345551,1.807816c-0.748657,0.666656 -1.05954,2.390076 -0.537231,2.905777c0.848114,0.841156 5.131042,-0.482254 7.468994,-2.305786c3.979523,-3.12352 4.457062,-5.703888 4.491882,-24.340683l0.017426,-10.940964l1.201294,0.117676l1.211517,0.10788l0.194,14.305649c0.228821,16.103439 0.261078,16.336716 3.028503,19.450409c1.571899,1.756821 3.153717,2.723572 5.727936,3.480331c3.449799,1.03334 4.484467,-0.548965 2.171356,-3.296005c-2.524567,-2.990128 -2.641418,-4.131271 -2.507111,-21.799408c0.09198,-11.325302 0.09198,-11.325302 0.833191,-10.668503c1.554535,1.399994 1.850464,3.690155 1.850464,14.315506c0,13.197617 0.378052,14.454391 5.088776,16.752396c2.203644,1.066666 2.818085,1.199997 5.635956,1.20784c2.994568,0.007843 3.178619,-0.033279 3.288055,-0.807831c0.092133,-0.625427 -0.27597,-1.056793 -1.673767,-1.89801c-1.83316,-1.115616 -3.111572,-2.548996 -3.909851,-4.346771c-0.303436,-0.699982 -0.505005,-5.237167 -0.641693,-14.588013c-0.201569,-13.056595 -0.243744,-13.648758 -1.067108,-15.697769c-1.109283,-2.746948 -2.800568,-4.919495 -4.94693,-6.360718c-0.554718,-0.358765 -1.109283,-0.658768 -1.83313,-0.882278c0.883026,-0.092148 1.748566,-0.184326 2.581696,-0.299973c8.665344,-1.141174 13.249329,-2.090179 16.925354,-3.497986c7.772461,-2.962738 13.037811,-7.882217 15.883148,-14.868301c0.258667,-0.617584 0.51239,-1.207687 0.720306,-1.682205l2.196259,0.174545c11.306732,0.948914 20.432465,2.297882 27.448883,4.054749c3.852478,0.966583 4.583771,1.082336 3.685913,0.574432c-0.84317,-0.456787 -8.170471,-2.10585 -13.132233,-2.931274zm-33.158539,-0.166718c-1.278473,2.798065 -4.862457,6.388031 -7.757507,7.793915c-2.86026,1.399979 -7.334808,2.456787 -12.406097,2.964645c-3.467163,0.34903 -22.804413,0.458832 -26.00293,0.141174c-10.565552,-1.023499 -16.487518,-3.039154 -20.85257,-7.06842c-4.131287,-3.831314 -6.063843,-9.035034 -5.728058,-15.429062c0.218872,-4.005844 1.193848,-6.521484 3.743195,-9.576355c2.320679,-2.790146 4.770508,-4.505829 7.645721,-5.38031c2.407593,-0.731384 9.7995,-0.79805 19.743256,-0.164719c4.392395,0.282364 8.026428,0.282364 12.407959,0c10.396454,-0.65097 17.335724,-0.574509 19.902496,0.20784c4.029236,1.231384 7.705292,4.554855 9.908936,8.976379c0.99231,1.972519 1.186371,2.813675 1.328156,5.860672c0.19397,4.205841 -0.537231,8.668564 -1.932556,11.67424zm-52.424286,-18.04277c-5.91452,-1.025467 -9.294586,8.999878 -4.760468,14.121399c2.161377,2.423492 4.071533,2.823486 6.469177,1.348999c2.21109,-1.364685 3.414886,-3.929352 3.414886,-7.24501c0,-4.429367 -2.036987,-7.676376 -5.123596,-8.225388zm35.901947,0.598053c-5.914551,-1.023544 -9.294739,8.993973 -4.760498,14.115479c2.161285,2.431213 4.071442,2.831207 6.469086,1.348999c2.211212,-1.366608 3.415009,-3.931274 3.415009,-7.244995c0,-4.413666 -2.037109,-7.678314 -5.123596,-8.219482zm-15.907196,19.719193c-0.124359,0.399994 -0.73877,0.998093 -1.370514,1.323578c-1.571899,0.799988 -2.70871,0.523453 -4.375122,-0.974564c-1.02475,-0.923477 -1.497314,-1.415665 -1.808197,-0.448959c-0.293488,0.898041 1.539551,2.698013 2.952301,3.247025c1.305756,0.507767 2.238708,0.525482 3.651428,-0.058823c1.397797,-0.57457 2.623047,-2.131409 2.623047,-3.139236c0,-0.941162 -1.359558,-0.898026 -1.672943,0.05098zm-1.748566,-3.139099c0.90036,-0.792053 1.101898,-2.407715 0.243744,-3.25676s-2.60675,-0.733307 -3.288239,0.233383c-0.800873,1.123459 -0.370575,1.982285 0.191528,2.890137c0.885437,0.674377 2.06958,0.815552 2.852966,0.13324z" stroke-width="null" stroke="null" fill="url(#svg_74)"/>
  <path id="svg_46" d="m432.407196,286.493774c7.374725,-12.661591 13.100952,-26.14978 16.852753,-40.268875c14.674255,-48.085236 10.252106,-90.027695 10.252106,-90.027695l-5.031616,27.637665c0,0 -7.21817,-51.171814 -16.072479,-70.3116c-13.558502,-29.30114 -19.595795,-29.075783 -19.607422,-29.025795c8.339294,18.112755 7.605652,28.489441 7.434509,30.052902c-0.15799,-0.21064 -0.292725,-0.421204 -0.41748,-0.616516c-2.014099,-4.258698 -12.266266,-23.894691 -34.252167,-37.803741c-38.514709,-32.58799 -91.482269,-52.720015 -150.010132,-52.734823c-62.431519,0 -118.604187,22.917562 -157.596115,59.433668c-4.92643,-6.082321 -8.943085,-13.462952 -9.313988,-21.61974c0,0 -0.028275,0.024994 -0.09314,0.064754c0,-0.14529 -0.04657,-0.275364 -0.04657,-0.405888c0,0 -24.781784,16.379337 -22.104015,60.576435c-4.603767,7.540779 -8.620022,15.392067 -11.961399,23.523857c-5.771332,10.732758 -11.544334,26.320038 -16.301109,49.202866c0,0 2.050735,-5.541748 6.142227,-12.976837c-0.986282,6.333069 -1.585037,12.751434 -1.784622,19.269684c-1.385452,11.098434 -1.81456,24.496429 -0.598755,40.55957c0,0 0.493973,-5.335815 2.090652,-13.412857c12.836647,90.028076 102.627441,159.783234 211.555176,159.783234l0,0c28.63385,0 55.968109,-4.859894 80.907928,-13.608307c56.659943,-17.651703 90.190002,-51.472076 109.955658,-87.291962zm-190.851929,-251.038567c37.652954,0 72.814758,8.928955 102.833527,24.426075c-35.009979,-6.93441 -52.849548,-3.427406 -52.696625,-3.256607c0.199646,0.200386 52.091339,7.736073 61.282043,18.533459c0,0 -22.026978,0 -43.964569,5.386124c-0.997894,0.250473 80.69455,8.70813 97.394836,78.358208c0,0 -8.954651,-15.92807 -20.023041,-18.648651c7.281097,18.899521 5.401855,54.769043 -1.538483,72.606277c-0.893036,2.28476 -1.821106,-9.915527 -15.456146,-15.166473c4.369202,26.750854 -0.276154,69.189072 -22.044159,80.878403c-1.679779,0.922089 13.653168,-41.881943 3.095245,-25.347672c-63.008545,82.431778 -137.91362,33.349136 -168.31369,15.868149c24.399216,5.095154 50.288467,1.41803 65.298843,-7.345459c15.113632,-8.823425 24.074966,-15.26152 32.126053,-13.748688c8.033295,1.533524 13.393799,-5.345871 7.140137,-11.453613c-6.230286,-6.123169 -21.426697,-14.515457 -41.943985,-9.945663c-14.469879,3.246353 -32.43222,16.905182 -59.820236,3.061188c-23.366425,-11.809692 -23.201843,-21.409515 -23.201843,-27.517456c0,-4.805176 3.958496,-11.559082 11.304855,-13.503052c8.924774,0.816483 16.066559,2.810944 23.659164,6.122589c0.076492,-1.773636 0.09314,-4.138412 -0.018356,-6.819122c0.598755,-1.007278 0.229553,-4.083389 -0.721832,-7.826324c-0.55217,-3.767792 -1.491821,-7.64592 -2.923889,-11.178314c0.151398,-0.025085 0.257843,-0.090378 0.322647,-0.275391c1.167557,-4.519363 33.047577,-20.277664 35.39119,-21.790512c2.355103,-1.49823 8.462418,-4.9655 7.787155,-15.537552c-0.229523,-3.482002 -0.893219,-3.862923 -34.358307,-3.757797c-14.117325,0.04023 -21.939438,-11.739319 -24.457458,-16.348808c3.417923,-16.168739 13.282318,-27.717781 29.536942,-35.519165c0.310989,-0.145302 0.229477,-0.275818 -0.123108,-0.355911c3.369659,-1.663467 -38.850876,-0.074974 -57.875885,21.068893c-5.097733,0.616516 -12.103165,-0.631256 -19.93689,-0.631256c-9.82444,0 -17.53331,0.921997 -24.675224,2.459961c-0.76841,0.170372 -1.877579,0.140282 -3.204811,-0.014755c-1.997505,-1.262703 -4.986305,-3.36219 -8.221207,-6.092941c2.483131,-2.3647 4.991249,-4.679413 7.622452,-6.909409c36.036407,-30.763847 85.739227,-49.768421 140.724655,-49.778732z" stroke-opacity="null" stroke-width="null" stroke="null" fill="url(#svg_74)"/>
 </g>
</svg>