<?xml version="1.0" standalone="no"?>
<!DOCTYPE svg PUBLIC "-//W3C//DTD SVG 20010904//EN"
 "http://www.w3.org/TR/2001/REC-SVG-20010904/DTD/svg10.dtd">
<svg version="1.0" xmlns="http://www.w3.org/2000/svg"
 width="591.000000pt" height="591.000000pt" viewBox="0 0 591.000000 591.000000"
 preserveAspectRatio="xMidYMid meet">
<metadata>
Created by potrace 1.11, written by Peter Selinger 2001-2013
</metadata>
<g transform="translate(0.000000,591.000000) scale(0.100000,-0.100000)"
fill="#000000" stroke="none">
<path d="M2297 4869 c-38 -4 -72 -11 -75 -15 -4 -4 15 -4 42 0 27 3 76 6 110
6 43 0 57 3 46 10 -17 11 -26 11 -123 -1z"/>
<path d="M2135 4830 c-63 -24 -127 -27 -119 -5 9 23 -5 18 -43 -15 -34 -30
-61 -40 -46 -17 4 6 -13 -4 -37 -23 -25 -19 -54 -42 -65 -50 -10 -8 -41 -36
-68 -63 l-49 -47 -29 21 c-24 16 -37 19 -75 13 l-45 -6 30 -19 c17 -10 31 -21
31 -23 0 -3 -18 -15 -40 -27 -22 -13 -39 -28 -38 -35 2 -6 -9 -23 -24 -37 -16
-15 -28 -24 -28 -22 0 2 -11 -7 -25 -21 -14 -14 -25 -33 -25 -44 0 -10 -7 -25
-15 -34 -25 -25 -17 -42 8 -18 31 29 39 19 31 -39 -7 -53 -11 -50 70 -49 30 1
37 -2 29 -12 -5 -7 -11 -44 -12 -82 -1 -37 -7 -79 -12 -93 -5 -13 -9 -38 -9
-54 0 -26 -16 -66 -31 -79 -3 -3 -12 -30 -19 -60 -7 -30 -18 -58 -24 -62 -21
-15 -36 -8 -36 17 0 14 -4 25 -10 25 -5 0 -10 11 -10 25 0 14 -5 24 -12 22 -9
-1 -12 16 -9 62 2 44 0 61 -8 57 -6 -4 -11 -16 -11 -26 0 -10 -4 -22 -10 -25
-5 -3 -10 -14 -10 -25 0 -10 -8 -21 -17 -25 -17 -6 -17 -7 -1 -19 15 -11 17
-25 12 -107 -7 -97 8 -256 25 -287 8 -13 9 -8 5 18 -7 51 9 225 21 223 20 -4
36 -111 38 -250 1 -79 4 -143 7 -143 7 0 65 89 73 113 15 41 27 13 27 -63 0
-48 4 -80 10 -80 7 0 7 -7 0 -21 -17 -32 -7 -32 39 -3 29 20 41 35 41 51 0 36
27 81 59 97 25 13 32 13 61 -2 36 -18 85 -96 73 -115 -4 -7 -11 -4 -17 8 -32
55 -97 95 -132 81 -20 -8 -9 -26 17 -26 23 0 26 -32 4 -54 -18 -18 -19 -27 -2
-23 7 1 11 -7 10 -20 -2 -13 2 -23 7 -23 6 0 10 9 10 19 0 11 4 22 10 26 5 3
7 11 5 18 -7 19 10 38 27 32 9 -4 18 -15 21 -26 6 -22 -3 -25 -21 -7 -9 9 -12
8 -12 -5 0 -9 8 -17 18 -17 16 -1 16 -1 0 -14 -22 -17 -22 -25 1 -53 24 -28
31 -29 31 -3 0 11 4 20 8 20 18 0 35 83 42 205 4 71 8 115 8 98 1 -18 8 -50
16 -70 8 -21 19 -54 25 -73 l10 -35 -3 35 c-5 45 -12 74 -25 98 -17 31 -27
322 -12 332 7 4 14 26 15 48 1 23 5 44 9 48 4 4 7 17 8 28 1 18 2 18 9 -4 4
-14 8 -20 9 -14 1 7 8 15 16 18 13 5 15 -2 13 -42 -3 -38 -7 -46 -21 -44 -14
2 -17 -5 -16 -50 l1 -53 12 35 c12 33 13 33 20 13 14 -43 26 -23 26 40 0 86
-10 137 -26 137 -18 0 -18 15 1 34 8 8 15 22 15 30 0 9 9 21 20 28 11 7 20 19
20 27 0 8 8 31 17 52 14 32 19 36 35 28 14 -8 18 -22 18 -70 0 -38 4 -58 10
-54 6 3 10 -1 10 -10 0 -9 -4 -14 -9 -10 -12 7 -17 -10 -57 -205 -27 -127 -27
-129 -11 -95 7 17 21 59 31 95 11 36 27 84 38 107 10 22 30 94 44 158 13 65
27 121 29 125 3 4 6 40 7 79 1 63 3 69 17 57 9 -7 32 -26 51 -42 19 -16 56
-49 82 -73 26 -24 48 -39 48 -34 0 6 -7 16 -15 23 -8 7 -14 27 -13 46 1 19 -6
42 -15 52 -21 23 -22 61 -1 69 11 4 14 13 9 31 -6 23 -3 22 34 -14 23 -21 41
-44 41 -51 0 -7 5 -13 11 -13 5 0 8 -4 5 -9 -4 -5 2 -7 13 -4 13 3 34 -11 70
-47 40 -41 54 -50 65 -41 10 8 16 8 25 -3 10 -11 9 -16 -5 -24 -11 -6 -13 -12
-6 -16 6 -4 20 -1 31 6 24 15 22 54 -3 50 -11 -2 -14 2 -10 13 4 9 -4 25 -20
40 -14 13 -26 30 -26 38 0 7 -13 23 -30 35 -25 19 -76 109 -67 118 2 2 15 -3
29 -10 15 -8 29 -12 32 -9 8 8 -31 80 -46 86 -7 3 -1 6 14 6 16 1 33 10 42 23
9 12 16 17 16 11 0 -6 8 -13 18 -16 9 -3 28 -12 42 -20 14 -8 36 -20 50 -26
28 -12 62 -33 70 -42 8 -10 228 8 309 26 120 25 113 31 -40 39 -95 4 -145 3
-149 -4 -4 -7 -29 -7 -81 1 -41 6 -89 13 -108 15 -19 3 -39 11 -45 19 -6 7
-40 21 -76 30 -65 17 -90 30 -90 46 0 5 13 9 29 9 44 0 46 17 3 24 -20 3 -50
13 -66 21 -15 8 -42 15 -58 15 -17 0 -27 4 -23 10 7 11 -17 14 -85 10 -40 -2
-43 0 -31 14 18 21 2 20 -64 -4z m765 -214 c0 -2 -7 -7 -16 -10 -8 -3 -12 -2
-9 4 6 10 25 14 25 6z m-615 -106 c3 -5 -1 -10 -10 -10 -9 0 -13 5 -10 10 3 6
8 10 10 10 2 0 7 -4 10 -10z m-507 -442 c28 -63 39 -133 23 -151 -6 -8 -14
-67 -17 -133 -3 -65 -9 -123 -13 -127 -14 -14 -50 105 -68 223 -3 19 -12 39
-19 43 -8 5 -11 14 -7 20 4 7 8 29 9 50 2 39 19 91 37 115 18 23 32 12 55 -40z
m-361 -300 c-3 -8 -6 -5 -6 6 -1 11 2 17 5 13 3 -3 4 -12 1 -19z m-60 -10 c-3
-8 -6 -5 -6 6 -1 11 2 17 5 13 3 -3 4 -12 1 -19z m443 -445 c-1 -18 -19 -35
-29 -28 -9 5 -9 10 0 21 12 15 29 19 29 7z"/>
<path d="M2570 4726 c0 -2 7 -7 16 -10 8 -3 12 -2 9 4 -6 10 -25 14 -25 6z"/>
<path d="M3760 4645 c-31 -24 -51 -32 -65 -28 -18 5 -18 4 -6 -11 12 -14 11
-19 -3 -34 -34 -39 -19 -86 52 -159 15 -16 63 -69 107 -118 137 -154 288 -301
410 -397 158 -125 228 -177 272 -199 26 -13 50 -27 53 -31 3 -4 30 -19 60 -33
30 -14 129 -63 220 -110 91 -46 181 -87 202 -90 24 -4 38 -13 41 -26 9 -33 77
-22 77 13 0 11 5 28 11 40 9 18 8 19 -10 13 -17 -5 -20 -3 -14 12 3 10 9 23
13 28 35 50 6 95 -74 111 -10 2 -36 13 -58 24 -21 11 -47 20 -58 20 -11 0 -20
5 -20 10 0 6 -7 10 -16 10 -29 0 -85 32 -80 46 3 7 0 16 -6 20 -7 4 -8 3 -4
-4 9 -15 3 -15 -45 0 -22 6 -39 15 -39 19 0 5 -7 6 -15 2 -9 -3 -23 1 -33 9
-9 9 -30 18 -45 22 -16 4 -48 25 -71 46 -24 22 -47 40 -53 40 -5 0 -20 13 -33
30 -14 16 -31 29 -37 30 -7 0 -13 5 -13 12 0 6 -3 8 -6 5 -10 -9 -64 32 -64
49 0 8 -9 14 -20 14 -11 0 -20 7 -20 15 0 8 -6 15 -13 15 -7 0 -34 23 -59 50
-25 28 -49 50 -53 50 -5 0 -21 14 -37 30 -16 17 -42 33 -57 36 -24 5 -29 11
-27 35 1 16 -3 29 -9 29 -13 0 -81 57 -158 133 -35 33 -48 53 -44 67 3 13 1
17 -9 13 -20 -7 -77 56 -71 79 3 10 1 21 -4 24 -5 3 -9 -1 -9 -8 0 -8 -5 -6
-11 5 -12 20 -35 23 -42 5 -2 -7 -8 -10 -12 -5 -9 8 28 47 44 47 5 0 11 -6 14
-12 2 -7 4 -1 4 15 0 15 -2 27 -6 26 -3 0 -26 -16 -51 -34z m-33 -73 c-10 -10
-17 -26 -17 -35 0 -22 -17 -30 -24 -11 -9 23 -7 34 5 34 6 0 17 7 25 15 22 21
30 19 11 -3z m458 -422 c3 -5 1 -10 -4 -10 -6 0 -11 5 -11 10 0 6 2 10 4 10 3
0 8 -4 11 -10z m35 -136 c0 -8 -5 -12 -10 -9 -6 4 -8 11 -5 16 9 14 15 11 15
-7z m49 -38 c10 -12 8 -13 -8 -9 -12 3 -18 9 -15 14 7 12 10 11 23 -5z m1 -36
c0 -5 -2 -10 -4 -10 -3 0 -8 5 -11 10 -3 6 -1 10 4 10 6 0 11 -4 11 -10z m35
-10 c3 -5 1 -10 -4 -10 -6 0 -11 5 -11 10 0 6 2 10 4 10 3 0 8 -4 11 -10z m45
-70 c0 -5 -4 -10 -9 -10 -6 0 -13 5 -16 10 -3 6 1 10 9 10 9 0 16 -4 16 -10z
m266 -127 c-4 -4 -11 -1 -16 7 -16 25 -11 35 7 17 9 -9 13 -20 9 -24z m542
-302 c-15 -24 -28 -27 -28 -6 0 13 31 38 38 30 2 -2 -3 -12 -10 -24z"/>
<path d="M3865 4550 c3 -5 8 -10 11 -10 2 0 4 5 4 10 0 6 -5 10 -11 10 -5 0
-7 -4 -4 -10z"/>
<path d="M2530 4515 c0 -8 5 -15 10 -15 6 0 10 7 10 15 0 8 -4 15 -10 15 -5 0
-10 -7 -10 -15z"/>
<path d="M2850 4372 c0 -6 11 -28 25 -48 23 -35 32 -73 19 -86 -3 -3 -21 10
-40 29 -26 25 -39 32 -47 24 -7 -7 -6 -12 7 -17 9 -3 23 -21 30 -38 7 -17 28
-48 46 -68 33 -38 59 -95 60 -133 1 -18 2 -18 14 4 13 23 13 23 27 4 14 -19
124 -95 187 -127 20 -10 -7 22 -74 89 -57 57 -104 109 -104 115 0 6 -16 34
-35 63 -35 52 -43 77 -26 77 5 0 40 -6 78 -14 86 -18 246 -28 238 -15 -4 5
-10 9 -15 9 -21 0 -173 64 -225 95 -31 19 -55 29 -52 22 3 -8 -1 -14 -9 -14
-8 0 -14 4 -14 8 0 3 -10 9 -22 12 -13 3 -33 9 -45 12 -14 5 -23 3 -23 -3z
m208 -352 c12 -19 11 -20 -8 -8 -11 7 -20 16 -20 20 0 15 15 8 28 -12z"/>
<path d="M2642 4307 c1 -29 5 -37 20 -37 22 0 44 -19 56 -47 4 -10 28 -57 54
-104 80 -145 138 -314 138 -405 0 -58 2 -62 25 -66 28 -6 29 0 16 69 -5 23 -6
45 -3 47 2 3 44 -36 93 -87 54 -56 89 -85 89 -75 0 9 -5 20 -11 24 -7 4 -27
41 -46 83 -19 42 -38 85 -43 96 -10 21 -28 92 -35 133 -3 24 -15 43 -15 26 0
-5 -9 -10 -21 -11 -13 -1 -19 3 -16 11 3 7 -4 18 -14 24 -10 7 -19 20 -19 30
0 9 -15 33 -34 53 -18 20 -36 44 -39 53 -4 9 -11 16 -16 16 -6 0 -17 12 -25
28 -8 15 -46 61 -85 102 l-71 75 2 -38z m338 -388 c0 -11 -4 -17 -10 -14 -5 3
-10 13 -10 21 0 8 5 14 10 14 6 0 10 -9 10 -21z m17 -51 c-3 -8 -6 -5 -6 6 -1
11 2 17 5 13 3 -3 4 -12 1 -19z"/>
<path d="M1460 4251 c0 -5 -8 -12 -17 -14 -15 -4 -15 -5 -2 -6 9 0 22 6 29 14
9 10 9 15 1 15 -6 0 -11 -4 -11 -9z"/>
<path d="M3517 4220 c-9 -22 -17 -47 -17 -55 0 -18 16 -20 23 -2 3 6 2 -7 0
-30 -5 -35 -3 -43 10 -43 21 0 39 34 36 68 -2 15 0 33 4 40 11 16 -15 16 -32
0 -11 -11 -12 -6 -7 25 4 20 6 37 4 37 -2 0 -11 -18 -21 -40z"/>
<path d="M2605 4220 c3 -5 10 -10 16 -10 5 0 9 5 9 10 0 6 -7 10 -16 10 -8 0
-12 -4 -9 -10z"/>
<path d="M2390 4204 c0 -13 18 -39 24 -34 2 3 -2 14 -10 24 -8 11 -14 16 -14
10z"/>
<path d="M2710 4139 c7 -11 14 -18 17 -15 8 8 -5 36 -17 36 -7 0 -7 -6 0 -21z"/>
<path d="M2672 4130 c7 -11 16 -20 21 -20 4 0 3 9 -3 20 -6 11 -15 20 -20 20
-6 0 -5 -9 2 -20z"/>
<path d="M3626 4135 c-3 -9 -12 -12 -23 -9 -15 5 -15 4 -4 -4 13 -9 13 -20 -2
-84 -19 -83 -31 -266 -17 -252 5 5 12 47 15 94 6 76 32 189 54 230 9 17 4 40
-9 40 -4 0 -10 -7 -14 -15z"/>
<path d="M4315 4140 c3 -5 8 -10 11 -10 2 0 4 5 4 10 0 6 -5 10 -11 10 -5 0
-7 -4 -4 -10z"/>
<path d="M2701 4084 c0 -11 3 -14 6 -6 3 7 2 16 -1 19 -3 4 -6 -2 -5 -13z"/>
<path d="M3730 4051 c0 -5 6 -14 14 -20 7 -6 14 -21 14 -34 0 -23 73 -210 79
-203 2 2 -3 30 -11 62 -15 56 -14 87 1 48 3 -10 14 -24 23 -31 9 -7 25 -34 34
-60 31 -84 40 -102 48 -97 5 3 6 29 3 57 -3 29 -2 45 1 37 34 -81 68 -138 80
-133 8 3 14 -1 14 -10 0 -8 12 -26 26 -41 23 -22 26 -31 20 -67 -4 -24 -3 -38
3 -35 16 10 19 -19 5 -59 -7 -22 -23 -83 -34 -135 -11 -52 -27 -120 -35 -151
-9 -31 -15 -103 -16 -164 -1 -114 14 -160 25 -81 8 49 20 59 31 25 11 -32 7
-147 -5 -170 -16 -28 -7 -33 15 -9 10 11 22 20 26 20 18 0 -14 -59 -52 -96
-33 -32 -69 -107 -57 -119 7 -7 68 56 63 65 -3 5 8 19 25 31 19 15 30 32 31
48 1 28 27 104 28 82 1 -8 7 -11 16 -7 28 11 29 -23 1 -45 -32 -25 -27 -38 6
-15 12 9 30 16 40 16 10 0 18 6 18 13 1 6 17 20 38 31 20 10 54 27 75 38 36
18 69 19 66 1 -5 -29 5 -31 11 -3 6 23 5 37 -3 42 -8 5 -8 13 0 30 7 13 13 68
15 123 4 90 7 107 38 169 57 115 76 95 30 -29 -36 -94 -67 -270 -40 -224 5 8
11 33 14 55 2 21 5 41 5 44 3 14 21 -28 21 -48 0 -12 6 -31 13 -43 10 -17 9
-22 -7 -35 -19 -13 -18 -14 11 -14 17 0 33 -3 36 -7 6 -13 -4 19 -25 72 -10
28 -21 61 -24 75 -3 14 -7 32 -10 41 -5 18 4 49 16 49 4 0 10 -30 13 -67 6
-56 14 -80 52 -142 50 -82 89 -115 155 -130 39 -9 41 -8 26 8 -9 10 -13 21 -9
26 5 4 1 6 -8 2 -25 -9 -73 42 -107 114 -26 54 -31 78 -33 154 -2 53 1 90 6
90 34 2 66 19 79 43 l14 27 7 -28 c4 -16 4 -80 1 -143 -4 -63 -4 -139 -1 -169
6 -47 11 -56 31 -61 14 -4 29 -15 35 -25 5 -11 16 -19 24 -19 8 0 29 -9 48
-20 36 -21 67 -18 67 6 0 17 11 17 62 2 58 -17 65 -1 25 58 -44 64 -53 125
-31 213 9 36 21 72 27 79 8 10 7 16 -2 22 -11 6 -10 10 4 17 15 9 7 14 -41 31
-69 24 -163 63 -184 77 -8 5 -28 8 -43 6 -16 -1 -36 4 -45 12 -9 8 -28 18 -42
22 -14 4 -36 17 -50 30 -48 43 -166 122 -193 129 -28 7 -113 83 -103 93 3 3
-8 23 -25 44 -23 29 -38 39 -59 39 -16 0 -35 7 -44 15 -19 20 -26 19 -26 -4 0
-16 -18 -31 -36 -31 -5 0 -34 64 -34 75 0 3 11 -2 25 -11 15 -10 25 -12 25 -5
0 6 -6 11 -12 11 -7 0 -33 23 -58 52 -64 73 -153 158 -166 158 -6 0 -17 7 -24
15 -17 20 -30 19 -30 -2 0 -14 -3 -14 -12 -5 -10 10 -10 15 1 21 11 7 10 13
-8 32 -11 12 -21 25 -21 28 0 4 -9 12 -20 19 -11 7 -20 8 -20 3z m130 -130 c0
-6 -4 -13 -10 -16 -5 -3 -10 1 -10 9 0 9 5 16 10 16 6 0 10 -4 10 -9z m75 -71
c3 -5 1 -10 -4 -10 -6 0 -11 5 -11 10 0 6 2 10 4 10 3 0 8 -4 11 -10z m225
-404 c0 -36 5 -68 10 -71 6 -3 10 2 10 12 0 10 7 27 15 37 8 11 15 28 15 38 0
21 13 24 28 6 11 -15 9 -29 -18 -158 -37 -175 -64 -354 -62 -415 2 -58 2 -59
-17 -40 -33 35 -70 208 -70 330 -1 115 52 325 81 325 4 0 8 -29 8 -64z m195
34 c-3 -5 -12 -10 -18 -10 -7 0 -6 4 3 10 19 12 23 12 15 0z m90 -47 c-2 -7 2
-10 11 -6 8 3 20 0 27 -6 19 -15 4 -116 -20 -143 -28 -32 -91 -68 -145 -85
-54 -16 -73 -9 -66 23 3 14 11 18 32 16 17 -2 25 1 21 7 -3 6 -13 11 -21 11
-17 0 -17 4 -3 53 5 20 14 37 19 37 6 0 10 12 10 26 0 29 16 64 39 81 24 19
32 15 26 -10 -3 -12 -1 -34 4 -47 10 -24 11 -23 10 10 0 19 2 45 6 57 7 22 8
22 31 5 13 -9 22 -22 19 -29z m161 -130 c-10 -10 -19 5 -10 18 6 11 8 11 12 0
2 -7 1 -15 -2 -18z m264 -78 c0 -8 -4 -15 -10 -15 -5 0 -10 7 -10 15 0 8 5 15
10 15 6 0 10 -7 10 -15z m35 -15 c3 -5 2 -10 -4 -10 -5 0 -13 5 -16 10 -3 6
-2 10 4 10 5 0 13 -4 16 -10z m22 -32 c-3 -7 -5 -2 -5 12 0 14 2 19 5 13 2 -7
2 -19 0 -25z m-143 -10 c6 -26 28 -239 30 -283 2 -45 -28 -44 -57 2 -41 66
-56 209 -25 249 10 12 18 29 18 38 0 25 29 19 34 -6z m123 -20 c13 -16 24
-268 13 -268 -16 0 -42 34 -61 78 -13 30 -19 67 -19 123 l0 79 29 0 c16 0 33
-6 38 -12z m-667 -114 c-18 -84 -23 -58 -8 38 9 57 14 73 16 50 2 -18 -2 -58
-8 -88z m96 34 c-12 -91 -80 -219 -108 -202 -17 11 -7 71 22 129 17 33 30 65
30 72 0 14 39 53 53 53 6 0 7 -21 3 -52z m-135 -111 c-13 -13 -15 24 -3 63 6
22 7 21 10 -14 2 -21 -1 -43 -7 -49z m158 -57 c0 -19 -8 -29 -36 -42 -20 -10
-39 -16 -41 -14 -2 2 6 20 16 41 11 20 26 57 34 82 l13 46 7 -44 c3 -24 7 -55
7 -69z m224 57 c3 -8 1 -20 -4 -28 -5 -9 -9 -9 -9 -2 0 6 -3 18 -6 27 -3 9 -2
16 4 16 5 0 12 -6 15 -13z m-369 -89 c3 -16 2 -28 -3 -28 -13 0 -24 37 -16 51
9 13 11 11 19 -23z m-114 -32 c0 -8 -7 -16 -15 -20 -17 -6 -18 -4 -9 18 8 20
24 21 24 2z m110 -25 c0 -6 -4 -13 -10 -16 -5 -3 -10 1 -10 9 0 9 5 16 10 16
6 0 10 -4 10 -9z"/>
<path d="M4385 3330 c3 -5 8 -10 11 -10 2 0 4 5 4 10 0 6 -5 10 -11 10 -5 0
-7 -4 -4 -10z"/>
<path d="M4346 3251 c-4 -5 3 -7 14 -4 23 6 26 13 6 13 -8 0 -17 -4 -20 -9z"/>
<path d="M2750 4008 c0 -7 5 -20 10 -28 8 -12 10 -11 10 7 0 12 -4 25 -10 28
-5 3 -10 0 -10 -7z"/>
<path d="M3650 4010 c0 -5 19 -10 43 -9 32 0 37 2 22 9 -28 12 -65 12 -65 0z"/>
<path d="M4520 3970 c0 -5 5 -10 10 -10 6 0 10 5 10 10 0 6 -4 10 -10 10 -5 0
-10 -4 -10 -10z"/>
<path d="M1900 3934 c0 -8 5 -12 10 -9 6 3 10 10 10 16 0 5 -4 9 -10 9 -5 0
-10 -7 -10 -16z"/>
<path d="M1255 3892 c-10 -26 -22 -53 -28 -59 -6 -9 -6 -13 2 -13 6 0 14 7 17
15 4 8 11 15 16 15 6 0 19 10 29 21 14 16 16 26 9 40 -18 33 -27 29 -45 -19z
m33 1 c-2 -9 -8 -18 -15 -20 -7 -3 -9 3 -6 16 6 25 26 28 21 4z"/>
<path d="M1892 3770 c0 -14 2 -19 5 -12 2 6 2 18 0 25 -3 6 -5 1 -5 -13z"/>
<path d="M1951 3754 c0 -11 3 -14 6 -6 3 7 2 16 -1 19 -3 4 -6 -2 -5 -13z"/>
<path d="M5153 3730 c0 -25 2 -35 4 -22 2 12 2 32 0 45 -2 12 -4 2 -4 -23z"/>
<path d="M3725 3717 c-33 -36 -27 -44 24 -39 39 3 59 -2 118 -32 39 -19 74
-40 78 -46 9 -15 35 -12 35 4 0 7 -9 25 -21 40 -12 15 -18 34 -15 43 5 13 4
14 -9 3 -12 -10 -27 -6 -81 19 -77 36 -101 37 -129 8z"/>
<path d="M5180 3711 c0 -17 5 -31 10 -31 6 0 10 11 10 24 0 14 -4 28 -10 31
-6 4 -10 -7 -10 -24z"/>
<path d="M1893 3680 c0 -30 2 -43 4 -27 2 15 2 39 0 55 -2 15 -4 2 -4 -28z"/>
<path d="M2757 3543 c-97 -52 -125 -111 -29 -62 33 17 63 24 100 23 41 0 52 3
52 15 -1 18 -34 61 -47 61 -4 0 -39 -17 -76 -37z"/>
<path d="M2083 3529 c-36 -13 -63 -28 -63 -35 0 -8 7 -14 16 -14 8 0 12 -4 9
-10 -9 -14 9 -12 66 6 46 15 57 16 127 1 42 -8 84 -18 92 -21 8 -3 24 1 35 10
25 19 15 26 -75 53 -104 32 -138 33 -207 10z"/>
<path d="M5210 3525 c0 -8 2 -15 4 -15 2 0 6 7 10 15 3 8 1 15 -4 15 -6 0 -10
-7 -10 -15z"/>
<path d="M4057 3503 c-3 -4 -8 -26 -11 -48 l-6 -40 14 45 c14 41 15 63 3 43z"/>
<path d="M2888 3442 c-10 -2 -18 -9 -18 -16 0 -13 33 -16 38 -3 6 14 -3 23
-20 19z"/>
<path d="M2795 3390 c3 -5 13 -10 21 -10 8 0 14 5 14 10 0 6 -9 10 -21 10 -11
0 -17 -4 -14 -10z"/>
<path d="M5066 3331 c6 -6 28 -14 50 -18 29 -4 36 -3 28 6 -6 6 -28 14 -50 18
-29 4 -36 3 -28 -6z"/>
<path d="M3855 3313 c-11 -2 -30 -9 -41 -15 -12 -6 -56 -9 -98 -6 -42 2 -76 3
-76 2 0 -1 6 -16 14 -34 10 -26 15 -30 22 -18 11 18 44 31 44 18 0 -6 6 -10
14 -10 8 0 17 -7 20 -16 3 -8 10 -12 16 -9 5 3 10 -1 10 -9 0 -28 48 -12 83
27 13 16 26 81 15 76 -2 -1 -12 -3 -23 -6z m-15 -43 c0 -5 -5 -10 -11 -10 -5
0 -7 5 -4 10 3 6 8 10 11 10 2 0 4 -4 4 -10z"/>
<path d="M4002 3300 c0 -14 2 -19 5 -12 2 6 2 18 0 25 -3 6 -5 1 -5 -13z"/>
<path d="M1597 3286 c-15 -23 -15 -24 7 -22 17 1 21 6 18 23 -5 28 -6 28 -25
-1z"/>
<path d="M2478 3273 c7 -3 16 -2 19 1 4 3 -2 6 -13 5 -11 0 -14 -3 -6 -6z"/>
<path d="M5098 3273 c6 -2 18 -2 25 0 6 3 1 5 -13 5 -14 0 -19 -2 -12 -5z"/>
<path d="M3992 3245 c0 -16 2 -22 5 -12 2 9 2 23 0 30 -3 6 -5 -1 -5 -18z"/>
<path d="M1705 3240 c3 -5 8 -10 11 -10 2 0 4 5 4 10 0 6 -5 10 -11 10 -5 0
-7 -4 -4 -10z"/>
<path d="M2073 3235 c-10 -28 5 -84 34 -124 30 -43 173 -136 195 -128 8 3 3 9
-13 15 -32 13 -62 57 -54 82 10 33 31 40 124 45 130 6 178 -18 176 -87 -1 -21
2 -38 6 -38 17 0 111 96 148 152 23 33 41 62 41 64 0 5 -74 24 -78 19 -2 -2 7
-7 22 -11 35 -8 35 -41 0 -55 -18 -6 -45 -6 -82 1 -31 5 -87 10 -126 10 -83 0
-359 46 -364 60 -5 15 -22 12 -29 -5z"/>
<path d="M5135 3240 c-3 -5 -1 -10 4 -10 6 0 11 5 11 10 0 6 -2 10 -4 10 -3 0
-8 -4 -11 -10z"/>
<path d="M1645 3210 c-4 -6 -17 -10 -30 -10 -13 0 -27 -4 -30 -10 -3 -6 4 -10
16 -10 80 0 168 -64 207 -150 33 -73 44 -253 18 -314 -9 -21 -16 -48 -16 -60
0 -12 -4 -26 -9 -32 -14 -13 -65 -202 -120 -440 -21 -90 -34 -181 -41 -285 -9
-121 -18 -181 -45 -279 -62 -228 -83 -394 -51 -406 8 -3 16 -14 19 -24 2 -10
38 -45 78 -78 54 -44 83 -78 107 -121 17 -34 32 -67 32 -75 0 -8 9 -18 21 -21
13 -4 18 -12 15 -21 -4 -9 -2 -12 5 -8 6 3 9 19 5 35 -5 27 -4 28 25 22 30 -6
109 22 109 38 0 4 21 27 47 51 26 24 66 63 88 88 22 24 76 83 120 131 44 47
107 115 140 150 76 83 95 106 76 94 -11 -6 -13 -3 -8 16 3 13 11 47 17 74 7
28 20 59 30 70 19 21 60 91 60 102 0 4 -10 -3 -22 -14 -27 -24 -144 -103 -153
-103 -3 0 -43 -28 -87 -62 -44 -35 -92 -72 -106 -83 l-25 -19 7 24 c17 55 19
73 8 66 -12 -7 -53 -135 -76 -237 -8 -35 -24 -95 -35 -134 -12 -38 -21 -83
-21 -99 0 -22 -11 -40 -46 -73 -51 -47 -61 -51 -78 -27 -9 12 -17 13 -39 5
-15 -6 -27 -16 -27 -23 0 -8 -5 -5 -11 5 -13 22 15 71 65 115 l34 30 11 189
c7 104 9 196 6 204 -9 24 -55 46 -123 60 l-62 13 0 46 c0 50 34 160 69 225 11
22 21 43 21 48 0 13 54 87 100 137 22 25 53 62 67 83 14 20 31 37 39 37 7 0
15 14 19 30 4 17 11 30 16 30 4 0 6 12 3 28 -4 19 1 33 15 49 12 13 17 25 11
28 -6 3 -10 12 -9 18 0 8 2 8 6 -1 4 -10 8 -10 19 -1 30 24 3 59 -45 59 -26 0
-28 30 -3 37 13 3 19 14 19 34 0 30 -15 37 -34 18 -16 -16 -28 8 -13 26 7 9 9
26 5 46 -6 24 -4 30 6 24 9 -6 11 -4 6 7 -7 20 58 123 78 123 8 0 20 9 28 19
12 17 15 17 29 2 14 -13 17 -14 22 -1 3 8 14 15 26 15 19 0 20 -5 15 -112 l-5
-113 19 86 c10 47 28 106 39 131 11 25 25 77 32 115 l13 70 96 -3 c84 -3 99
-1 121 16 l25 21 -30 -8 c-31 -8 -167 -10 -270 -3 -94 6 -211 -28 -259 -75
-25 -25 -19 -41 7 -19 22 20 77 48 82 42 2 -2 -4 -40 -12 -86 l-15 -83 -61
-39 c-104 -68 -127 -53 -127 82 0 95 -35 242 -66 272 -8 8 -14 19 -14 24 0 4
-11 19 -25 32 -17 16 -22 27 -15 35 7 9 -2 17 -35 29 -24 10 -60 28 -79 41
-20 13 -38 20 -41 15z m245 -329 c15 -29 13 -191 -2 -191 -10 0 -10 -2 -1 -8
10 -7 24 -64 40 -171 4 -22 1 -36 -8 -42 -11 -7 -9 -9 6 -9 14 0 16 -3 8 -11
-6 -6 -20 -8 -31 -5 -31 10 -72 45 -67 59 2 7 6 25 10 41 6 26 4 28 -10 16
-30 -25 -37 3 -14 56 11 27 21 66 21 87 1 39 22 53 31 20 3 -11 5 -8 6 9 0 15
-5 31 -13 35 -10 6 -12 21 -6 63 4 30 6 58 3 63 -2 4 0 7 6 7 6 0 15 -9 21
-19z m-70 -369 c0 -15 -2 -15 -10 -2 -13 20 -13 33 0 25 6 -3 10 -14 10 -23z
m80 -92 c0 -5 -7 -10 -15 -10 -8 0 -15 5 -15 10 0 6 7 10 15 10 8 0 15 -4 15
-10z m-1 -907 c22 -6 23 -9 17 -67 -3 -34 -11 -63 -16 -64 -6 -2 -30 -24 -54
-48 -26 -26 -54 -44 -67 -44 -12 0 -27 -7 -33 -16 -10 -13 -15 -11 -34 16
l-23 30 37 40 c20 22 44 50 52 62 9 12 31 35 49 51 18 16 30 33 27 38 -6 10
11 11 45 2z m-323 -274 c13 -11 14 -9 8 17 -7 26 -6 28 9 16 9 -8 22 -10 29
-6 9 6 9 3 -1 -10 -11 -13 -11 -20 -3 -28 18 -18 14 -28 -9 -28 -41 0 -59 18
-58 58 1 22 3 28 6 15 2 -12 11 -27 19 -34z m94 1 c0 -5 -4 -10 -10 -10 -5 0
-10 5 -10 10 0 6 5 10 10 10 6 0 10 -4 10 -10z m62 -162 c-7 -7 -12 -8 -12 -2
0 14 12 26 19 19 2 -3 -1 -11 -7 -17z m61 -97 c3 -14 1 -18 -9 -14 -8 3 -14
14 -14 25 0 23 16 16 23 -11z"/>
<path d="M1846 2645 c-3 -10 -3 -22 3 -28 12 -12 20 4 11 27 -6 19 -7 19 -14
1z"/>
<path d="M1895 2520 c3 -5 8 -10 11 -10 2 0 4 5 4 10 0 6 -5 10 -11 10 -5 0
-7 -4 -4 -10z"/>
<path d="M5288 3213 c7 -3 16 -2 19 1 4 3 -2 6 -13 5 -11 0 -14 -3 -6 -6z"/>
<path d="M1495 3173 c-20 -5 -57 -28 -210 -129 -80 -53 -148 -114 -112 -101
18 7 25 -17 8 -28 -6 -3 -13 -26 -17 -51 -3 -25 -13 -51 -20 -59 -11 -10 -11
-15 -1 -18 7 -3 5 -6 -5 -6 -18 -1 -26 -31 -9 -31 5 0 9 -20 9 -45 1 -32 -3
-45 -12 -45 -18 0 -25 -20 -15 -45 4 -11 8 -15 8 -10 1 6 6 3 11 -5 12 -19 11
-188 -1 -196 -5 -3 -9 -14 -9 -25 0 -25 -16 -24 -32 1 -7 11 -18 20 -25 20 -8
0 -13 14 -13 35 0 28 4 35 20 35 13 0 20 7 20 20 0 13 7 20 20 20 21 0 24 12
11 44 -5 12 -10 16 -14 9 -4 -6 -16 -9 -27 -6 -11 3 -20 0 -20 -6 0 -12 -32
-3 -42 13 -5 7 -13 6 -24 -6 -15 -15 -15 -17 5 -27 11 -7 21 -18 21 -26 0 -11
-5 -12 -26 -5 -29 11 -44 6 -44 -16 0 -8 -4 -14 -10 -14 -5 0 -10 -7 -10 -15
0 -8 -4 -15 -9 -15 -9 0 -27 -112 -22 -137 1 -7 -7 -13 -17 -13 -27 0 -32 -9
-22 -36 8 -20 6 -24 -10 -24 -18 0 -22 -5 -19 -27 0 -4 -8 -10 -19 -14 -13 -5
-19 -18 -20 -45 -1 -21 -6 -42 -12 -48 -5 -5 -10 -20 -10 -33 0 -13 -6 -23
-14 -23 -19 0 -16 -72 2 -78 10 -3 10 -7 1 -18 -6 -7 -9 -35 -7 -62 2 -37 0
-48 -9 -45 -7 3 -13 11 -13 19 0 8 -4 14 -10 14 -13 0 -2 -28 25 -65 37 -51
40 -59 22 -52 -13 5 -17 1 -17 -16 0 -13 -5 -28 -11 -34 -16 -16 -1 -35 21
-28 15 5 17 2 13 -15 -7 -25 -14 -25 -46 0 -33 26 -41 25 -65 -5 -17 -22 -21
-23 -32 -10 -16 20 -20 75 -10 145 38 254 38 254 95 385 31 72 73 166 94 210
21 44 42 90 45 101 4 12 15 29 26 39 11 10 20 23 20 30 0 7 13 30 28 51 16 21
34 54 40 72 6 18 21 46 33 63 12 17 19 33 16 36 -6 5 -46 -60 -105 -170 -19
-34 -40 -69 -47 -77 -7 -8 -30 -51 -49 -95 -20 -44 -47 -100 -60 -125 -41 -76
-113 -262 -124 -320 -18 -93 -32 -197 -32 -243 0 -59 -27 -95 -58 -78 -15 8
-23 8 -28 -1 -4 -7 -3 -8 4 -4 7 4 12 3 12 -2 0 -4 32 -42 70 -82 38 -40 70
-80 70 -87 0 -8 7 -28 16 -44 8 -17 13 -33 11 -36 -3 -2 -29 3 -58 11 -77 23
-47 2 41 -29 41 -15 101 -35 132 -47 75 -26 401 -186 473 -232 30 -20 59 -36
63 -36 18 0 174 -100 193 -124 17 -22 27 -26 50 -21 18 4 37 0 56 -12 28 -17
26 -15 -68 91 -5 5 -3 -5 3 -22 19 -49 4 -48 -48 2 -26 25 -56 46 -68 46 -12
1 -36 9 -55 19 l-34 18 -3 299 c-2 274 -1 311 21 439 13 77 26 207 29 289 3
81 11 191 17 244 6 53 8 110 4 128 -5 31 -8 32 -40 27 -31 -5 -36 -2 -47 23
-6 16 -17 36 -23 44 -6 8 -24 47 -39 85 -15 39 -36 90 -46 114 -20 50 -14 95
23 171 31 63 150 180 217 212 51 25 53 33 5 21z m-245 -183 c-35 -24 -54 -31
-30 -11 14 11 30 21 35 21 6 0 3 -5 -5 -10z m-20 -810 c0 -5 -2 -10 -4 -10 -3
0 -8 5 -11 10 -3 6 -1 10 4 10 6 0 11 -4 11 -10z m20 -104 c0 -8 -4 -18 -10
-21 -5 -3 -10 3 -10 14 0 12 5 21 10 21 6 0 10 -6 10 -14z m-50 -26 c0 -5 -4
-10 -10 -10 -5 0 -10 5 -10 10 0 6 5 10 10 10 6 0 10 -4 10 -10z m14 -37 c-5
-5 -12 -12 -16 -18 -4 -6 -8 -2 -8 8 0 9 7 17 17 17 9 0 12 -3 7 -7z m-484
-376 c0 -7 -10 -21 -22 -31 -21 -18 -21 -19 -3 -32 10 -8 16 -16 13 -19 -3 -3
-19 9 -36 26 -24 25 -29 36 -21 46 6 7 14 11 18 9 4 -3 13 -1 21 5 21 12 30
11 30 -4z m80 -17 c0 -5 -4 -10 -10 -10 -5 0 -10 5 -10 10 0 6 5 10 10 10 6 0
10 -4 10 -10z m50 -5 c0 -8 -4 -15 -10 -15 -5 0 -10 7 -10 15 0 8 5 15 10 15
6 0 10 -7 10 -15z m-20 -179 c0 -3 -4 -8 -10 -11 -5 -3 -10 -1 -10 4 0 6 5 11
10 11 6 0 10 -2 10 -4z m380 -152 c0 -14 -3 -14 -15 -4 -8 7 -15 14 -15 16 0
2 7 4 15 4 8 0 15 -7 15 -16z"/>
<path d="M5882 3151 c4 -13 18 -16 19 -4 0 4 -5 9 -11 12 -7 2 -11 -2 -8 -8z"/>
<path d="M3966 3132 c-4 -7 -14 -11 -21 -8 -7 2 -25 2 -39 -2 -26 -7 -27 -8
-29 -115 -1 -59 1 -107 5 -107 3 0 14 21 24 48 27 73 34 72 35 -8 0 -57 3 -69
10 -52 10 26 29 21 29 -9 0 -10 5 -19 11 -19 7 0 9 9 4 28 -5 15 -11 79 -14
142 -4 69 -9 110 -15 102z"/>
<path d="M1825 3120 c3 -5 13 -10 21 -10 8 0 12 5 9 10 -3 6 -13 10 -21 10 -8
0 -12 -4 -9 -10z"/>
<path d="M5840 3101 c0 -6 5 -13 10 -16 6 -3 10 1 10 9 0 9 -4 16 -10 16 -5 0
-10 -4 -10 -9z"/>
<path d="M2169 2974 c24 -7 52 -16 62 -19 11 -4 19 -2 19 3 0 10 -77 33 -107
31 -10 -1 2 -7 26 -15z"/>
<path d="M2757 2933 c-20 -5 -18 -24 3 -31 7 -3 10 0 6 7 -4 6 2 15 16 20 24
10 7 12 -25 4z"/>
<path d="M4415 2900 c-11 -18 5 -31 21 -16 8 8 14 17 14 20 0 10 -28 7 -35 -4z"/>
<path d="M2544 2884 c3 -9 6 -37 7 -62 l1 -47 10 43 c5 23 14 42 20 42 7 0 2
9 -10 20 -26 24 -36 26 -28 4z"/>
<path d="M2600 2867 c0 -6 75 -57 84 -57 4 0 4 5 1 10 -7 11 -85 53 -85 47z"/>
<path d="M1045 2820 c-3 -5 -1 -10 4 -10 6 0 11 5 11 10 0 6 -2 10 -4 10 -3 0
-8 -4 -11 -10z"/>
<path d="M5864 2808 c-3 -5 -2 -18 2 -30 l6 -21 -27 21 c-34 27 -45 28 -45 3
0 -11 -9 -23 -20 -26 -11 -3 -20 -13 -20 -22 0 -10 -6 -13 -16 -9 -24 9 -48
-22 -46 -60 2 -19 1 -34 0 -34 -2 0 -18 4 -36 9 -27 8 -34 6 -46 -11 -11 -15
-19 -18 -31 -11 -14 8 -12 12 18 26 19 9 40 23 46 31 10 12 7 16 -24 22 -23 4
-41 2 -48 -5 -8 -8 -8 -11 1 -11 7 0 12 -5 12 -10 0 -6 -8 -10 -17 -8 -11 2
-18 -3 -18 -14 0 -9 -8 -24 -17 -35 -10 -11 -14 -28 -11 -45 4 -21 1 -28 -11
-28 -9 0 -16 -4 -16 -8 0 -15 22 -30 36 -25 8 3 14 1 14 -5 0 -6 -5 -12 -11
-14 -9 -3 -9 -9 0 -25 15 -29 14 -43 -4 -43 -9 0 -14 -8 -12 -19 4 -25 27 -52
38 -45 16 10 9 -6 -12 -27 -15 -15 -19 -28 -14 -50 5 -22 3 -29 -9 -29 -9 0
-16 -5 -16 -11 0 -8 -19 -10 -62 -6 -44 4 -58 3 -45 -4 24 -14 22 -21 -15 -61
-28 -30 -37 -34 -60 -27 -23 6 -28 4 -28 -11 0 -18 -1 -18 -32 -2 -18 9 -36
21 -40 27 -4 5 -11 6 -15 1 -4 -4 0 -13 10 -20 18 -14 23 -36 7 -36 -5 0 -13
7 -18 17 -14 24 -42 10 -35 -19 5 -19 3 -21 -8 -10 -39 37 -69 -9 -42 -66 14
-29 14 -35 2 -43 -8 -5 -20 -9 -26 -9 -8 0 -13 -15 -13 -40 0 -22 5 -40 10
-40 6 0 10 -5 10 -11 0 -6 -7 -9 -15 -5 -8 3 -15 1 -15 -3 0 -5 5 -11 10 -13
6 -2 12 -20 14 -41 2 -21 6 -40 10 -44 3 -3 6 -17 6 -30 0 -12 5 -23 10 -23 6
0 10 -7 10 -15 0 -8 -4 -15 -9 -15 -5 0 -12 -19 -16 -42 -7 -41 -8 -41 -21
-17 l-13 24 -1 -32 c0 -26 3 -31 17 -26 10 4 14 2 10 -4 -3 -5 -1 -26 5 -46
10 -33 12 -35 25 -19 13 16 14 15 10 -6 -4 -18 -3 -21 7 -12 10 8 12 5 8 -15
-2 -14 -8 -22 -13 -19 -12 7 -11 -10 2 -40 7 -14 16 -23 20 -20 5 3 9 -6 9
-20 0 -14 -5 -28 -10 -31 -9 -6 -7 -25 7 -80 12 -45 -13 1 -32 58 -11 33 -24
62 -30 64 -12 3 -14 -301 -2 -313 4 -4 7 4 7 17 1 23 1 23 12 5 6 -11 12 -30
14 -42 1 -13 13 -38 26 -56 35 -47 68 -142 68 -194 0 -31 4 -44 14 -44 8 0 17
-7 20 -16 9 -22 8 -23 -14 -17 -11 3 -20 9 -20 14 0 26 -29 5 -84 -61 -18 -22
-40 -37 -60 -40 l-31 -5 29 -27 c22 -20 36 -25 60 -21 42 6 76 -18 60 -44 -15
-24 -66 -31 -244 -34 -124 -2 -134 -4 -65 -8 52 -4 81 -10 83 -18 1 -8 -10
-13 -30 -13 -30 0 -31 -1 -16 -16 12 -13 20 -14 37 -5 11 7 21 18 21 26 0 10
10 15 28 15 22 0 24 -2 12 -11 -12 -8 -7 -9 17 -6 30 3 31 2 19 -12 -17 -19
-4 -51 20 -51 9 0 22 -7 31 -16 9 -8 23 -12 31 -9 8 3 19 0 23 -7 5 -7 34 -12
78 -13 40 -1 76 -7 85 -14 9 -8 55 -15 118 -17 117 -5 138 -9 138 -30 0 -8 9
-14 20 -14 11 0 19 6 18 13 -4 15 61 22 75 8 17 -17 -9 -36 -51 -36 -30 0 -37
-4 -37 -20 0 -15 8 -21 33 -23 19 -2 32 -9 32 -17 0 -18 17 -28 32 -19 23 14
98 6 139 -15 23 -12 44 -20 46 -17 10 10 -6 36 -22 36 -28 0 -94 39 -111 66
-10 14 -20 21 -23 15 -4 -6 -6 27 -5 72 1 101 18 138 79 175 52 31 67 60 61
120 -3 41 8 59 17 25 4 -14 5 -12 6 5 1 13 -5 22 -13 22 -17 0 -41 28 -32 37
3 4 12 1 18 -5 7 -7 16 -12 20 -12 4 0 8 467 8 1038 l0 1038 -21 0 c-11 0 -23
-4 -25 -8z m-110 -113 c-25 -19 -34 -19 -34 0 0 10 10 15 27 15 26 0 26 -1 7
-15z m-134 -115 c0 -5 -9 -10 -20 -10 -10 0 -23 -7 -28 -16 -5 -10 -15 -14
-21 -10 -9 6 -9 11 0 22 6 7 15 12 19 9 5 -3 11 -1 15 5 8 13 35 13 35 0z
m-260 -484 c0 -8 3 -21 6 -30 4 -10 1 -16 -9 -16 -15 0 -27 20 -27 46 0 8 7
14 15 14 8 0 15 -6 15 -14z m-200 -436 c0 -4 -7 -13 -15 -20 -12 -10 -15 -9
-15 7 0 11 7 20 15 20 8 0 15 -4 15 -7z m20 -55 c12 -14 10 -16 -6 -14 -4 0
-11 -5 -15 -13 -7 -10 -9 -10 -9 2 0 13 -1 13 -10 0 -5 -8 -12 -11 -16 -7 -7
7 24 45 37 46 4 1 12 -6 19 -14z m27 -457 c-3 -8 -6 -5 -6 6 -1 11 2 17 5 13
3 -3 4 -12 1 -19z m13 -47 c0 -6 -4 -13 -10 -16 -5 -3 -10 1 -10 9 0 9 5 16
10 16 6 0 10 -4 10 -9z m16 -108 c10 -10 13 -10 17 0 8 18 28 -14 23 -36 -2
-10 0 -14 6 -11 6 4 14 0 19 -7 6 -10 9 -10 9 -2 0 7 11 12 25 11 18 -2 24 -7
20 -19 -3 -10 1 -19 10 -23 24 -9 18 -33 -10 -40 -14 -4 -25 -11 -25 -17 0
-18 -30 11 -31 30 0 10 -2 11 -6 4 -8 -20 -20 -15 -36 15 -8 15 -22 41 -31 57
-9 17 -16 41 -15 55 0 15 3 19 6 10 4 -8 12 -20 19 -27z m331 -129 c-3 -3 -12
-4 -19 -1 -8 3 -5 6 6 6 11 1 17 -2 13 -5z m-277 -30 c0 -8 -4 -14 -10 -14 -5
0 -10 9 -10 21 0 11 5 17 10 14 6 -3 10 -13 10 -21z m340 6 c0 -5 7 -10 15
-10 36 0 145 -44 145 -58 0 -9 7 -24 17 -34 9 -10 14 -21 11 -24 -3 -3 -15 5
-27 17 -23 25 -41 18 -26 -9 14 -24 7 -82 -10 -82 -7 0 -15 -7 -19 -15 -3 -8
-11 -15 -18 -15 -7 0 -18 -16 -24 -36 -9 -28 -9 -38 3 -49 8 -9 11 -24 7 -39
-5 -20 -14 -26 -49 -32 -83 -12 -195 53 -215 124 -14 52 -12 104 5 126 17 23
19 36 5 36 -5 0 -10 -8 -10 -17 0 -11 -3 -14 -8 -7 -4 6 -15 13 -24 17 -33 12
-18 25 22 20 33 -5 39 -3 35 10 -6 15 42 47 71 47 7 0 17 7 22 17 6 10 16 14
26 10 9 -4 16 -2 16 3 0 6 7 10 15 10 8 0 15 -4 15 -10z m135 0 c3 -5 -1 -10
-10 -10 -9 0 -13 5 -10 10 3 6 8 10 10 10 2 0 7 -4 10 -10z m-265 -10 c0 -5
-4 -10 -9 -10 -6 0 -13 5 -16 10 -3 6 1 10 9 10 9 0 16 -4 16 -10z m-178 -51
c-18 -21 -32 -25 -32 -9 0 17 24 38 37 33 8 -3 7 -10 -5 -24z m48 -9 c-12 -23
-40 -27 -40 -6 0 8 10 17 23 19 12 2 23 5 25 6 1 0 -2 -8 -8 -19z m-150 -49
c-6 -12 -15 -21 -21 -21 -6 0 -3 7 5 16 9 8 16 20 16 26 0 6 3 9 6 6 3 -4 1
-16 -6 -27z m624 -27 c3 -8 2 -12 -4 -9 -6 3 -10 10 -10 16 0 14 7 11 14 -7z
m-93 -187 c-6 -6 -11 -21 -11 -34 0 -13 -4 -23 -9 -23 -21 0 -20 20 1 56 12
20 24 32 26 25 2 -7 -1 -18 -7 -24z"/>
<path d="M5320 895 c0 -15 4 -24 10 -20 6 3 10 12 10 20 0 8 -4 17 -10 20 -6
4 -10 -5 -10 -20z"/>
<path d="M5580 501 c0 -22 41 -36 52 -18 9 15 -10 37 -33 37 -12 0 -19 -7 -19
-19z"/>
<path d="M5660 510 c0 -5 5 -10 10 -10 6 0 10 5 10 10 0 6 -4 10 -10 10 -5 0
-10 -4 -10 -10z"/>
<path d="M2950 2806 c0 -2 7 -9 15 -16 13 -11 14 -10 9 4 -5 14 -24 23 -24 12z"/>
<path d="M2686 2782 c-14 -17 -15 -23 -2 -52 13 -31 14 -32 20 -12 4 12 4 26
1 32 -10 16 11 12 25 -6 8 -8 21 -19 31 -25 30 -16 8 31 -28 58 -29 22 -30 23
-47 5z"/>
<path d="M2838 2754 c-29 -15 -42 -42 -32 -68 8 -20 24 -21 24 -1 0 9 10 29
22 45 26 36 22 43 -14 24z"/>
<path d="M4404 2671 c-17 -10 -46 -41 -66 -67 -40 -56 -93 -167 -77 -162 7 2
20 27 31 56 12 33 40 74 76 112 50 52 62 60 94 60 20 0 40 5 43 10 11 18 -69
11 -101 -9z"/>
<path d="M1438 2634 c-5 -4 -8 -23 -8 -43 0 -25 3 -32 11 -24 6 6 9 25 7 43
-2 17 -6 28 -10 24z"/>
<path d="M1027 2614 c-8 -8 1 -24 14 -24 5 0 9 7 9 15 0 15 -12 20 -23 9z"/>
<path d="M4777 2576 c15 -13 30 -22 33 -19 5 5 -41 42 -53 43 -4 0 5 -11 20
-24z"/>
<path d="M4600 2581 c0 -6 4 -13 10 -16 6 -3 7 1 4 9 -7 18 -14 21 -14 7z"/>
<path d="M1375 2560 c3 -5 8 -10 11 -10 2 0 4 5 4 10 0 6 -5 10 -11 10 -5 0
-7 -4 -4 -10z"/>
<path d="M3901 2510 c-30 -28 -52 -52 -50 -55 6 -5 101 72 112 91 15 27 -8 13
-62 -36z"/>
<path d="M1397 2536 c-4 -10 -1 -13 8 -9 8 3 12 9 9 14 -7 12 -11 11 -17 -5z"/>
<path d="M4830 2526 c0 -2 8 -10 18 -17 15 -13 16 -12 3 4 -13 16 -21 21 -21
13z"/>
<path d="M4632 2495 c0 -16 4 -41 8 -55 7 -23 8 -22 8 10 0 19 -3 44 -8 55 -7
17 -9 15 -8 -10z"/>
<path d="M3935 2431 c-3 -5 -1 -12 5 -16 5 -3 10 1 10 9 0 18 -6 21 -15 7z"/>
<path d="M5000 2319 c0 -29 3 -49 7 -45 10 10 12 85 2 92 -5 3 -9 -18 -9 -47z"/>
<path d="M5460 2345 c0 -2 11 -15 25 -29 25 -25 32 -17 19 18 -5 14 -44 24
-44 11z"/>
<path d="M4597 2277 c-10 -6 -26 -43 -37 -82 -21 -72 -70 -304 -70 -327 1 -31
18 23 35 107 9 50 21 99 25 110 5 11 13 46 19 78 6 32 20 72 32 88 23 33 22
45 -4 26z"/>
<path d="M5440 2270 c0 -13 11 -13 30 0 12 8 11 10 -7 10 -13 0 -23 -4 -23
-10z"/>
<path d="M2100 2244 c0 -8 5 -12 10 -9 6 3 10 10 10 16 0 5 -4 9 -10 9 -5 0
-10 -7 -10 -16z"/>
<path d="M5342 2201 c2 -7 7 -12 11 -12 12 1 9 15 -3 20 -7 2 -11 -2 -8 -8z"/>
<path d="M4992 2184 c-1 -12 -5 -43 -8 -70 -4 -38 -3 -45 6 -31 6 9 9 41 7 70
-2 28 -4 43 -5 31z"/>
<path d="M3895 2170 c-16 -11 -25 -20 -19 -20 11 0 64 39 54 40 -3 0 -18 -9
-35 -20z"/>
<path d="M4591 2144 c-11 -15 -21 -32 -21 -38 0 -6 8 1 17 14 9 14 21 28 27
32 6 4 8 10 4 13 -3 3 -15 -6 -27 -21z"/>
<path d="M5155 2160 c-3 -5 1 -10 10 -10 9 0 13 5 10 10 -3 6 -8 10 -10 10 -2
0 -7 -4 -10 -10z"/>
<path d="M4221 2124 c0 -11 3 -14 6 -6 3 7 2 16 -1 19 -3 4 -6 -2 -5 -13z"/>
<path d="M3944 2057 c3 -34 12 -70 23 -85 10 -15 21 -38 24 -52 l7 -25 0 25
c1 14 -6 43 -14 65 -9 22 -22 60 -30 85 l-14 45 4 -58z"/>
<path d="M5004 2062 c-25 -21 -36 -59 -23 -83 10 -19 -3 -97 -22 -131 -6 -11
-6 -18 0 -18 5 0 12 -33 14 -72 7 -101 60 -255 99 -287 l29 -24 -17 39 c-9 22
-30 75 -46 119 -16 44 -33 84 -39 90 -5 5 -9 29 -9 52 l0 44 27 -25 c15 -14
30 -23 33 -21 4 2 12 -13 19 -35 18 -62 26 -54 23 23 -3 47 -7 66 -13 56 -8
-12 -10 -12 -19 1 -14 21 -13 26 13 39 12 6 15 10 5 7 -19 -5 -30 27 -22 64 4
17 3 21 -4 12 -7 -10 -13 -8 -25 11 -31 47 -30 69 3 105 43 45 22 74 -26 34z"/>
<path d="M3320 1821 c0 -4 27 -11 60 -15 33 -4 60 -11 60 -16 0 -6 5 -10 10
-10 26 0 5 28 -29 38 -45 14 -101 16 -101 3z"/>
<path d="M4915 1820 c-3 -5 -2 -10 4 -10 5 0 13 5 16 10 3 6 2 10 -4 10 -5 0
-13 -4 -16 -10z"/>
<path d="M3065 1790 c-3 -5 1 -10 9 -10 9 0 16 5 16 10 0 6 -4 10 -9 10 -6 0
-13 -4 -16 -10z"/>
<path d="M3367 1772 c-19 -20 -22 -58 -7 -82 5 -8 12 -11 17 -7 4 5 2 12 -6
16 -7 5 -11 19 -9 32 2 19 8 23 28 21 14 -1 20 1 14 5 -6 5 -13 14 -15 21 -3
10 -9 9 -22 -6z"/>
<path d="M3443 1747 c4 -11 0 -14 -16 -10 -16 4 -8 -7 28 -41 27 -25 54 -46
60 -46 5 1 -1 10 -14 20 -13 11 -26 35 -30 52 -4 17 -13 34 -20 36 -9 3 -12 0
-8 -11z"/>
<path d="M4002 1711 c-1 -33 1 -42 8 -31 11 18 13 67 3 73 -5 3 -9 -16 -11
-42z"/>
<path d="M5000 1730 c0 -5 5 -10 10 -10 6 0 10 5 10 10 0 6 -4 10 -10 10 -5 0
-10 -4 -10 -10z"/>
<path d="M420 1710 c0 -5 5 -10 11 -10 5 0 7 5 4 10 -3 6 -8 10 -11 10 -2 0
-4 -4 -4 -10z"/>
<path d="M2192 1690 c0 -14 2 -19 5 -12 2 6 2 18 0 25 -3 6 -5 1 -5 -13z"/>
<path d="M2654 1687 c-24 -13 -94 -94 -94 -108 0 -16 12 -10 70 41 32 28 62
50 66 50 5 0 18 7 28 15 19 14 18 15 -15 15 -19 -1 -44 -6 -55 -13z"/>
<path d="M2775 1680 c3 -5 10 -10 16 -10 5 0 9 5 9 10 0 6 -7 10 -16 10 -8 0
-12 -4 -9 -10z"/>
<path d="M2812 1665 c2 -5 14 -32 27 -60 12 -27 26 -59 31 -70 8 -18 9 -18 9
5 1 27 -31 95 -56 120 -9 8 -14 11 -11 5z"/>
<path d="M3100 1659 c1 -19 25 -49 39 -49 17 0 13 13 -14 39 -16 14 -25 18
-25 10z"/>
<path d="M3168 1637 c-5 -28 4 -52 19 -46 5 2 3 19 -3 38 -11 34 -11 34 -16 8z"/>
<path d="M4068 1623 c6 -2 18 -2 25 0 6 3 1 5 -13 5 -14 0 -19 -2 -12 -5z"/>
<path d="M2166 1594 c-4 -14 -5 -28 -3 -31 3 -2 8 8 11 23 4 14 5 28 3 31 -3
2 -8 -8 -11 -23z"/>
<path d="M3411 1604 c0 -11 3 -14 6 -6 3 7 2 16 -1 19 -3 4 -6 -2 -5 -13z"/>
<path d="M3212 1590 c-7 -12 -8 -20 -2 -20 5 0 10 -6 10 -14 0 -8 7 -16 15
-20 24 -9 17 -24 -9 -19 -13 3 -27 0 -30 -6 -4 -6 -16 -11 -27 -11 -11 0 -17
-5 -14 -10 4 -6 15 -8 24 -5 12 3 22 -3 31 -20 7 -14 18 -25 23 -25 5 0 25
-13 44 -30 39 -35 84 -41 76 -11 -3 11 -19 25 -36 31 -97 35 -106 56 -32 77
53 16 109 48 70 41 -11 -2 -25 3 -31 11 -9 12 -12 9 -18 -12 -10 -40 -31 -33
-56 18 -12 25 -23 45 -23 45 -1 0 -8 -9 -15 -20z"/>
<path d="M5070 1570 c0 -5 5 -10 10 -10 6 0 10 5 10 10 0 6 -4 10 -10 10 -5 0
-10 -4 -10 -10z"/>
<path d="M240 1539 c-60 -24 -111 -114 -111 -197 -1 -49 30 -104 84 -150 17
-15 46 -41 64 -58 35 -34 103 -58 149 -53 16 2 35 0 42 -4 6 -5 12 -4 12 1 0
5 -12 15 -27 23 -16 7 -46 25 -68 40 -22 14 -68 38 -101 53 -34 15 -79 45
-100 67 -35 36 -39 44 -37 87 3 58 21 108 51 147 20 25 31 29 81 33 52 4 69
-1 147 -36 99 -44 162 -65 100 -32 -22 11 -47 27 -56 35 -25 23 -124 55 -167
54 -21 0 -49 -5 -63 -10z"/>
<path d="M2848 1458 c-20 -42 -41 -68 -153 -185 -92 -97 -213 -186 -295 -217
-25 -10 -80 -37 -122 -62 -86 -49 -88 -50 -88 -30 0 8 -5 18 -12 22 -7 5 -9 2
-5 -8 3 -9 1 -20 -5 -26 -6 -6 6 -12 38 -17 62 -9 131 -42 171 -83 20 -21 33
-28 33 -19 0 14 81 72 133 95 15 7 42 12 60 12 26 1 29 3 15 10 -10 6 -26 7
-40 2 -13 -5 -50 -9 -83 -10 l-59 -1 108 55 c60 30 112 54 117 54 13 0 143 86
159 105 22 27 4 27 -27 1 -42 -35 -75 -46 -139 -46 -31 0 -63 -4 -73 -9 -10
-6 -23 -6 -32 -1 -11 8 -9 13 11 27 14 9 49 41 79 70 30 29 57 53 60 53 3 0
34 26 68 58 44 41 67 72 83 111 24 61 23 90 -2 39z"/>
<path d="M3068 1463 c6 -2 18 -2 25 0 6 3 1 5 -13 5 -14 0 -19 -2 -12 -5z"/>
<path d="M5051 1444 c0 -11 3 -14 6 -6 3 7 2 16 -1 19 -3 4 -6 -2 -5 -13z"/>
<path d="M3585 1411 c-25 -22 -114 -42 -163 -35 -51 6 -84 -10 -40 -21 54 -12
133 2 188 33 30 18 48 32 40 32 -9 0 -20 -4 -25 -9z"/>
<path d="M5081 1284 c0 -11 3 -14 6 -6 3 7 2 16 -1 19 -3 4 -6 -2 -5 -13z"/>
<path d="M5092 1215 c0 -16 2 -22 5 -12 2 9 2 23 0 30 -3 6 -5 -1 -5 -18z"/>
<path d="M3268 1193 c-15 -30 -15 -31 8 -36 26 -5 30 9 15 47 -7 18 -9 17 -23
-11z"/>
<path d="M5 1120 c8 -27 22 -46 29 -39 3 3 -4 18 -15 34 -19 28 -20 28 -14 5z"/>
<path d="M3384 1075 l-10 -46 43 7 c39 6 44 4 52 -17 5 -13 10 -18 10 -11 1
21 -19 55 -51 85 -16 15 -30 27 -31 27 -2 0 -7 -20 -13 -45z"/>
<path d="M3300 1098 c0 -7 5 -20 10 -28 8 -12 10 -9 10 13 0 15 -4 27 -10 27
-5 0 -10 -6 -10 -12z"/>
<path d="M520 1053 c0 -3 8 -11 17 -18 15 -11 14 -14 -8 -25 -13 -7 -29 -20
-36 -29 -8 -12 -34 -17 -102 -19 -78 -4 -89 -6 -83 -20 5 -15 3 -15 -11 -4
-14 12 -20 10 -43 -15 l-27 -28 7 28 c5 20 3 27 -9 27 -8 0 -15 -9 -15 -20 0
-25 -12 -26 -33 -2 -19 20 -23 37 -7 27 5 -3 7 0 4 8 -7 20 -42 10 -49 -14 -7
-21 -35 -26 -35 -6 0 7 9 20 20 30 32 27 26 49 -12 44 -20 -2 -33 -9 -34 -18
-2 -33 -4 -39 -14 -39 -5 0 -17 15 -26 33 -10 18 -19 26 -22 19 -2 -7 1 -19 8
-26 6 -8 7 -17 2 -20 -5 -3 -10 -45 -11 -94 l-2 -88 58 -11 c39 -7 76 -8 113
-1 30 5 76 9 102 9 26 0 50 4 53 9 12 20 24 9 31 -27 4 -21 9 -31 11 -23 29
107 128 170 263 169 150 0 253 -94 254 -230 1 -94 -53 -147 -169 -169 -75 -14
-213 0 -253 26 -58 38 -92 88 -92 137 0 35 -2 37 -15 23 -9 -8 -30 -17 -48
-20 -173 -26 -171 -25 -187 -11 -8 7 -27 17 -42 20 -31 8 -34 15 -16 33 9 9 9
12 0 12 -7 0 -12 -4 -12 -10 0 -5 -7 -10 -15 -10 -8 0 -15 -9 -15 -20 0 -11
-4 -20 -10 -20 -6 0 -10 -35 -10 -85 0 -74 2 -86 20 -95 11 -6 18 -15 15 -21
-4 -5 1 -12 10 -16 10 -3 21 0 26 8 7 11 9 11 9 -3 0 -11 8 -18 20 -18 11 0
20 5 20 10 0 6 5 10 11 10 6 0 8 -9 4 -20 -5 -17 -2 -20 22 -20 15 0 47 -6 71
-13 38 -12 42 -15 28 -26 -9 -8 -16 -20 -16 -27 0 -20 27 -17 32 4 4 13 15 17
47 16 23 0 46 5 52 13 18 21 31 15 24 -9 -6 -21 -4 -20 19 6 14 16 26 24 26
18 0 -7 8 -12 18 -12 10 0 23 -5 30 -12 8 -8 15 -8 26 1 11 9 15 9 19 -1 3 -9
12 -4 28 15 24 26 59 37 59 17 0 -5 -7 -10 -15 -10 -17 0 -20 -16 -5 -25 11
-7 53 19 45 27 -3 3 0 20 6 38 l12 33 16 -22 c11 -14 23 -20 33 -16 10 4 23 3
29 -1 7 -4 29 -8 48 -9 20 -1 53 -5 74 -9 22 -5 42 -4 50 2 22 18 122 35 168
28 103 -16 150 -18 163 -6 10 8 16 8 21 0 4 -6 16 -10 28 -9 37 3 67 -1 67 -8
0 -5 -19 -18 -42 -31 -38 -20 -44 -21 -54 -7 -16 21 -23 19 -17 -5 3 -11 15
-26 26 -32 18 -9 23 -7 35 11 17 25 28 27 36 6 9 -23 -4 -45 -27 -45 -19 0
-19 -1 -4 -18 21 -23 22 -58 1 -66 -25 -10 -74 -7 -74 4 0 6 16 10 35 10 40 0
50 26 13 32 -15 2 -22 9 -22 21 2 19 -21 23 -32 6 -3 -6 -16 -8 -29 -5 -15 4
-25 1 -29 -9 -3 -8 -12 -15 -20 -15 -20 0 -29 -30 -11 -36 9 -4 22 -1 30 6 9
7 18 10 21 7 9 -9 -6 -27 -22 -27 -10 0 -14 -7 -12 -17 3 -10 11 -16 19 -13 8
2 55 5 106 7 72 2 92 -1 97 -12 3 -8 12 -15 19 -15 8 0 20 -6 26 -14 9 -11 43
-13 169 -11 86 2 180 9 207 15 28 6 62 13 77 16 17 4 25 11 21 20 -3 8 5 16
23 20 18 5 29 3 32 -4 5 -15 72 -16 72 -2 0 10 -21 14 -47 11 -15 -2 -17 15
-3 24 15 9 0 35 -21 35 -11 0 -22 -7 -25 -15 -4 -8 -12 -15 -20 -15 -16 0 -19
16 -3 25 5 4 15 19 21 33 l10 27 11 -22 c14 -32 24 -28 19 8 -3 22 -9 29 -19
24 -11 -4 -13 -1 -9 11 3 8 6 18 6 20 0 2 11 4 24 4 14 0 28 5 32 11 3 6 16 8
27 5 12 -3 27 0 34 6 9 7 17 7 27 -1 11 -10 16 -9 23 4 13 22 177 30 194 9 17
-21 45 -17 56 8 l10 22 19 -22 c23 -28 54 -28 88 -1 24 19 53 18 41 -1 -11
-18 26 -31 82 -29 32 1 66 -1 76 -6 12 -5 16 -3 12 6 -6 17 31 67 41 57 4 -4
1 -14 -6 -23 -10 -12 -10 -18 0 -30 7 -8 17 -12 23 -8 6 4 28 6 49 6 31 0 38
3 36 16 -2 9 -12 16 -22 16 -10 0 -26 11 -37 23 -10 13 -23 21 -29 17 -6 -3
-10 3 -10 15 0 26 22 35 59 22 20 -7 32 -7 40 1 8 8 11 8 11 0 0 -14 -20 -29
-45 -36 -11 -3 0 -4 25 -4 25 1 48 6 52 12 5 7 14 6 27 -2 17 -11 24 -9 47 12
20 19 25 30 20 50 -5 18 -2 25 9 25 8 0 15 -4 15 -9 0 -5 15 -9 33 -9 17 0 54
-10 80 -22 26 -12 58 -20 70 -18 22 3 -7 20 -119 68 l-41 18 -13 80 c-7 46
-19 88 -29 99 -9 10 -22 32 -29 48 -12 28 -16 30 -65 30 -46 0 -52 -3 -48 -20
11 -55 1 -163 -18 -208 -25 -59 -25 -58 -4 -50 15 6 16 5 3 -9 -8 -9 -16 -12
-18 -7 -2 4 -27 -5 -55 -21 -30 -16 -73 -31 -100 -34 -26 -3 -54 -11 -62 -19
-11 -12 -23 -13 -57 -5 -55 12 -65 22 -13 13 36 -6 32 -2 -38 34 -45 22 -85
37 -94 34 -11 -5 -14 -3 -8 6 6 10 3 11 -14 1 -15 -7 -20 -17 -16 -29 5 -18
-21 -38 -33 -26 -3 3 0 5 7 5 7 0 9 4 6 10 -4 6 -16 5 -33 -4 -46 -23 -99 -27
-185 -15 -97 14 -137 39 -164 104 l-18 44 -70 -5 c-66 -5 -73 -4 -115 25 -25
17 -61 34 -80 37 -19 4 -42 12 -50 19 -25 22 -146 53 -406 105 -137 27 -267
54 -289 60 -103 29 -177 56 -260 97 -104 52 -135 65 -135 56z m-442 -131 c2
-7 -3 -12 -12 -12 -9 0 -16 7 -16 16 0 17 22 14 28 -4z m276 12 c9 -3 16 -10
16 -14 0 -10 -38 -1 -46 11 -6 10 7 12 30 3z m-294 -68 c0 -3 -4 -8 -10 -11
-5 -3 -10 -1 -10 4 0 6 5 11 10 11 6 0 10 -2 10 -4z m140 -26 c0 -5 -5 -10
-11 -10 -5 0 -7 5 -4 10 3 6 8 10 11 10 2 0 4 -4 4 -10z m-110 -294 c0 -3 -4
-8 -10 -11 -5 -3 -10 -1 -10 4 0 6 5 11 10 11 6 0 10 -2 10 -4z m1640 -86 c0
-5 -2 -10 -4 -10 -3 0 -8 5 -11 10 -3 6 -1 10 4 10 6 0 11 -4 11 -10z m730 -5
c0 -8 -4 -15 -10 -15 -5 0 -10 7 -10 15 0 8 5 15 10 15 6 0 10 -7 10 -15z
m157 -5 c1 -13 -4 -20 -15 -20 -11 0 -18 8 -18 20 0 12 7 20 16 20 9 0 16 -9
17 -20z m-1087 -6 c0 -8 -5 -12 -10 -9 -6 4 -8 11 -5 16 9 14 15 11 15 -7z
m240 -54 c0 -13 -19 -22 -30 -15 -14 9 0 34 16 28 8 -3 14 -9 14 -13z m-330
-65 c0 -8 -7 -15 -15 -15 -16 0 -20 12 -8 23 11 12 23 8 23 -8z"/>
<path d="M2670 1013 c0 -16 8 -37 17 -48 14 -18 15 -18 9 -2 -3 10 -6 32 -6
48 0 16 -4 29 -10 29 -5 0 -10 -12 -10 -27z"/>
<path d="M2926 1004 c-10 -23 -14 -40 -8 -46 6 -6 13 1 20 19 5 15 13 36 17
46 14 33 -11 17 -29 -19z"/>
<path d="M160 1000 c0 -5 5 -10 11 -10 5 0 7 5 4 10 -3 6 -8 10 -11 10 -2 0
-4 -4 -4 -10z"/>
<path d="M265 960 c-3 -5 -2 -10 4 -10 5 0 13 5 16 10 3 6 2 10 -4 10 -5 0
-13 -4 -16 -10z"/>
<path d="M2783 954 c-4 -11 1 -22 12 -30 38 -28 70 -7 39 27 -21 23 -42 25
-51 3z"/>
<path d="M2653 944 c13 -13 77 -32 77 -23 0 10 -8 13 -55 24 -16 4 -27 3 -22
-1z"/>
<path d="M1940 920 c-20 -6 -21 -8 -5 -8 11 0 29 3 40 8 25 11 -1 11 -35 0z"/>
<path d="M1720 908 c0 -9 5 -20 10 -23 13 -8 13 5 0 25 -8 13 -10 13 -10 -2z"/>
<path d="M2280 814 c0 -16 23 -44 35 -44 22 0 18 28 -4 40 -22 11 -31 13 -31
4z"/>
<path d="M4466 798 c-9 -12 -16 -29 -16 -38 0 -8 10 0 21 18 24 37 20 55 -5
20z"/>
<path d="M2421 695 c-1 -22 -8 -51 -16 -65 -22 -39 -17 -49 6 -11 14 23 19 45
16 75 l-4 41 -2 -40z"/>
<path d="M4965 710 c3 -5 14 -10 23 -10 15 0 15 2 2 10 -20 13 -33 13 -25 0z"/>
<path d="M2715 630 c-12 -14 -15 -24 -9 -30 7 -7 17 -4 29 10 12 14 15 24 9
30 -7 7 -17 4 -29 -10z"/>
<path d="M4327 643 c-10 -9 -9 -23 1 -23 5 0 17 7 28 15 19 14 19 14 -2 15
-11 0 -24 -3 -27 -7z"/>
<path d="M4595 632 c21 -15 43 -60 46 -93 3 -38 -29 -96 -77 -140 -39 -36
-146 -57 -202 -41 -54 17 -71 15 -44 -4 13 -9 29 -17 35 -18 7 -1 17 -4 22 -8
6 -3 30 -9 54 -13 24 -3 52 -11 62 -18 13 -8 24 -8 43 2 21 12 27 11 41 -3 13
-13 20 -14 31 -5 17 14 44 5 44 -16 0 -8 12 -20 26 -25 36 -14 44 -13 44 10 0
11 5 20 11 20 6 0 22 9 36 20 14 11 31 20 37 20 7 0 7 -3 -1 -8 -27 -17 44
-65 90 -60 37 3 43 21 10 26 -14 2 -23 10 -23 20 0 15 -2 15 -10 2 -7 -12 -12
-12 -21 -3 -22 22 -21 53 1 54 11 1 28 2 37 3 9 0 18 -5 21 -13 3 -10 0 -12
-12 -8 -9 4 -16 2 -16 -3 0 -23 31 -7 55 27 26 38 20 68 -9 44 -11 -9 -15 -9
-20 1 -5 10 -7 10 -12 1 -6 -15 -34 -18 -34 -4 0 12 22 28 45 33 11 2 20 10
20 18 0 9 -7 14 -17 12 -21 -3 -24 18 -6 36 9 9 4 12 -24 12 -20 0 -40 -4 -43
-10 -3 -5 -16 -10 -28 -10 -16 0 -18 3 -8 9 11 7 11 9 0 14 -9 4 -7 6 6 8 11
1 -16 5 -60 8 l-79 6 -15 40 c-17 45 -33 65 -53 65 -8 0 -9 -3 -3 -8z"/>
<path d="M2530 620 c0 -5 5 -10 11 -10 5 0 7 5 4 10 -3 6 -8 10 -11 10 -2 0
-4 -4 -4 -10z"/>
<path d="M2481 584 c0 -11 3 -14 6 -6 3 7 2 16 -1 19 -3 4 -6 -2 -5 -13z"/>
<path d="M2540 581 c0 -6 5 -13 10 -16 6 -3 10 1 10 9 0 9 -4 16 -10 16 -5 0
-10 -4 -10 -9z"/>
<path d="M4580 570 c-8 -5 -12 -12 -9 -15 4 -3 12 1 19 10 14 17 11 19 -10 5z"/>
<path d="M4010 530 c-12 -8 -12 -10 3 -16 9 -3 17 -14 17 -23 -1 -14 -2 -14
-11 2 -11 18 -49 24 -49 7 0 -5 -7 -10 -15 -10 -20 0 -19 17 3 29 15 9 14 10
-8 10 -34 -1 -119 -16 -97 -18 9 0 17 -5 17 -9 0 -5 -21 -6 -47 -2 -84 10 -98
8 -97 -17 1 -21 0 -21 -26 -8 -15 8 -31 11 -36 6 -5 -4 -22 -13 -38 -19 -25
-11 -28 -11 -22 4 5 13 3 14 -6 6 -15 -12 -248 -13 -264 -1 -6 5 -45 11 -88
15 -76 6 -78 5 -71 -15 5 -16 2 -21 -10 -21 -9 0 -15 -5 -13 -11 5 -15 78 -18
96 -5 8 6 17 5 24 -2 9 -9 7 -15 -6 -25 -24 -18 -14 -48 21 -64 40 -19 41 -18
37 42 -4 59 4 67 40 40 13 -10 16 -18 9 -27 -6 -7 -13 -23 -16 -35 -4 -20 -1
-23 24 -23 31 0 37 16 19 51 -6 10 -7 19 -3 20 4 0 23 2 41 5 30 4 33 2 30
-19 -2 -15 -9 -21 -20 -19 -10 2 -18 -2 -18 -7 0 -10 12 -14 72 -26 24 -4 31
10 13 25 -31 26 -18 42 34 39 48 -3 111 16 111 32 0 5 5 9 12 9 6 0 8 -3 5 -7
-12 -12 37 -37 75 -39 40 -2 49 9 22 24 -12 6 -13 11 -5 16 14 9 51 -2 51 -15
0 -13 34 -11 48 3 10 10 17 10 31 1 11 -7 23 -8 32 -2 19 12 82 11 115 -2 16
-5 53 -11 84 -13 31 -1 61 -5 67 -9 6 -4 19 -4 27 -1 10 4 25 -1 36 -11 32
-29 33 -10 1 24 -32 35 -41 38 -41 16 0 -8 -5 -15 -11 -15 -6 0 -9 6 -6 13 2
6 0 20 -5 30 -6 11 -5 17 2 17 8 0 8 6 0 20 -6 11 -21 20 -33 20 -18 0 -19 2
-7 10 10 7 -8 10 -60 10 -41 0 -82 -4 -90 -10z"/>
<path d="M4188 533 c6 -2 18 -2 25 0 6 3 1 5 -13 5 -14 0 -19 -2 -12 -5z"/>
<path d="M3105 509 c3 -5 2 -17 -4 -27 -14 -27 2 -48 22 -28 8 9 21 16 27 16
18 0 -7 37 -30 43 -11 3 -18 1 -15 -4z"/>
<path d="M4520 505 c0 -8 4 -15 9 -15 5 0 11 7 15 15 3 9 0 15 -9 15 -8 0 -15
-7 -15 -15z"/>
<path d="M3021 487 c-5 -12 -7 -25 -4 -29 7 -13 30 -9 43 7 9 11 9 15 1 15 -7
0 -10 4 -7 9 3 5 -1 12 -9 15 -10 4 -19 -2 -24 -17z"/>
<path d="M5035 459 c-4 -6 -5 -12 -2 -15 2 -3 7 2 10 11 7 17 1 20 -8 4z"/>
<path d="M2934 435 c8 -8 17 -15 20 -15 3 0 6 7 6 15 0 9 -9 15 -21 15 -18 0
-19 -2 -5 -15z"/>
<path d="M1086 353 c-3 -3 -6 -16 -6 -29 0 -12 -7 -25 -16 -28 -17 -6 -10 -26
10 -26 13 0 38 78 26 85 -4 2 -10 2 -14 -2z"/>
<path d="M3560 350 c0 -5 5 -10 10 -10 6 0 10 5 10 10 0 6 -4 10 -10 10 -5 0
-10 -4 -10 -10z"/>
<path d="M299 333 c-18 -4 -42 -50 -31 -57 4 -2 19 -2 34 1 27 5 45 34 33 53
-6 10 -9 11 -36 3z"/>
<path d="M385 324 c-21 -21 -19 -31 8 -38 32 -8 34 -8 39 12 8 28 -26 46 -47
26z"/>
<path d="M1137 321 c-5 -22 1 -33 14 -25 12 7 12 44 0 44 -5 0 -11 -9 -14 -19z"/>
<path d="M5804 326 c-9 -23 0 -51 16 -51 10 0 15 10 15 29 0 32 -21 47 -31 22z"/>
<path d="M166 312 c3 -8 -5 -12 -23 -10 -36 4 -42 -23 -9 -38 22 -10 27 -8 46
19 l23 30 12 -24 c8 -13 11 -27 9 -31 -3 -5 -1 -8 4 -8 13 0 20 30 13 55 -6
20 -41 32 -41 14 0 -11 -27 -12 -33 -1 -2 4 -2 1 -1 -6z"/>
<path d="M490 294 c0 -8 5 -12 10 -9 6 3 10 10 10 16 0 5 -4 9 -10 9 -5 0 -10
-7 -10 -16z"/>
<path d="M2050 296 c0 -14 29 -31 38 -22 2 3 2 12 -1 21 -8 19 -37 20 -37 1z"/>
<path d="M5580 280 c0 -5 5 -10 11 -10 5 0 7 5 4 10 -3 6 -8 10 -11 10 -2 0
-4 -4 -4 -10z"/>
<path d="M4746 261 c-6 -9 36 -31 59 -31 11 0 10 5 -5 20 -21 21 -45 26 -54
11z"/>
<path d="M1027 244 c-8 -9 18 -34 36 -34 25 0 28 27 4 34 -28 7 -32 7 -40 0z"/>
<path d="M3038 233 c7 -3 16 -2 19 1 4 3 -2 6 -13 5 -11 0 -14 -3 -6 -6z"/>
<path d="M3071 236 c2 -2 22 -6 44 -10 29 -5 36 -4 25 3 -13 10 -79 16 -69 7z"/>
<path d="M7 223 c-4 -3 -7 -55 -7 -115 l0 -109 200 1 c110 1 200 5 200 10 0 5
-5 21 -12 35 l-12 26 -13 -23 -12 -23 -1 23 c0 12 -5 22 -10 22 -6 0 -15 11
-20 24 -6 17 -19 26 -45 30 -25 5 -39 14 -42 27 -4 14 -15 19 -42 20 -20 1
-65 6 -101 13 -53 9 -64 14 -62 29 3 17 -9 23 -21 10z m127 -89 c4 -11 1 -14
-11 -12 -9 2 -18 9 -21 16 -6 18 25 15 32 -4z"/>
<path d="M3180 216 c0 -7 97 -76 106 -76 10 0 -31 39 -65 62 -25 17 -41 22
-41 14z"/>
<path d="M2791 124 c0 -11 3 -14 6 -6 3 7 2 16 -1 19 -3 4 -6 -2 -5 -13z"/>
<path d="M2815 123 c-4 -13 -11 -23 -16 -23 -12 0 -12 -37 0 -45 11 -6 35 60
27 78 -3 7 -7 3 -11 -10z"/>
<path d="M3290 83 c0 -21 -3 -48 -6 -60 -5 -17 -2 -23 10 -23 13 0 16 11 16
54 0 30 -4 58 -10 61 -6 4 -10 -9 -10 -32z"/>
<path d="M2760 90 c0 -5 5 -10 10 -10 6 0 10 5 10 10 0 6 -4 10 -10 10 -5 0
-10 -4 -10 -10z"/>
<path d="M2687 52 c-24 -26 -5 -52 38 -52 33 0 35 2 35 36 0 31 -2 35 -15 24
-10 -9 -15 -9 -15 -1 0 17 -25 13 -43 -7z"/>
<path d="M3184 62 c-6 -4 -14 -19 -18 -34 -6 -26 -4 -28 23 -28 26 0 41 14 41
40 0 14 -35 30 -46 22z"/>
<path d="M2780 15 c0 -8 5 -15 10 -15 6 0 10 7 10 15 0 8 -4 15 -10 15 -5 0
-10 -7 -10 -15z"/>
</g>
</svg>
