<?xml version="1.0" standalone="no"?>
<!DOCTYPE svg PUBLIC "-//W3C//DTD SVG 20010904//EN"
 "http://www.w3.org/TR/2001/REC-SVG-20010904/DTD/svg10.dtd">
<svg version="1.0" xmlns="http://www.w3.org/2000/svg"
 width="225.000000pt" height="225.000000pt" viewBox="0 0 225.000000 225.000000"
 preserveAspectRatio="xMidYMid meet">
<metadata>
Created by potrace 1.11, written by Peter Selinger 2001-2013
</metadata>
<g transform="translate(0.000000,225.000000) scale(0.100000,-0.100000)"
fill="#000000" stroke="none">
<path d="M182 2230 c-19 -12 -41 -37 -50 -58 -11 -25 -29 -43 -56 -57 -117
-59 -89 -235 37 -235 23 0 52 7 64 15 20 14 25 11 98 -64 42 -44 77 -82 77
-86 1 -4 -13 -31 -31 -60 -41 -68 -85 -175 -101 -248 -12 -54 -16 -58 -66 -87
-83 -46 -85 -109 -6 -149 38 -20 39 -21 45 -88 15 -160 88 -346 184 -474 l51
-67 -116 -115 c-109 -110 -116 -115 -136 -102 -11 8 -40 15 -63 15 -126 0
-154 -176 -37 -235 27 -14 45 -32 56 -57 39 -91 169 -106 218 -26 24 39 25 82
5 121 l-14 28 120 119 119 119 58 -37 c32 -20 74 -43 95 -51 28 -11 39 -23 48
-50 27 -86 100 -171 182 -215 128 -67 271 -52 396 41 39 30 107 131 116 173 5
25 22 37 102 80 53 27 98 49 99 48 2 -2 55 -54 118 -117 109 -108 115 -115
101 -135 -8 -11 -15 -40 -15 -63 0 -126 176 -154 235 -37 14 27 32 45 57 56
91 39 106 169 26 218 -39 24 -82 25 -121 5 l-28 -14 -109 110 c-61 61 -110
113 -110 116 0 3 22 35 49 72 103 140 161 285 183 454 11 90 14 97 39 108 38
15 62 44 62 74 0 32 -23 57 -72 79 -36 17 -39 22 -55 92 -16 68 -94 243 -128
287 -13 17 -7 26 63 98 77 78 78 79 106 64 39 -20 82 -19 121 5 80 49 65 179
-26 218 -25 11 -43 29 -57 56 -59 117 -235 89 -235 -37 0 -23 7 -52 15 -64 14
-20 11 -25 -56 -90 -38 -37 -74 -69 -80 -71 -5 -2 -27 11 -48 30 -95 81 -253
154 -402 184 -122 25 -323 16 -444 -20 -104 -31 -229 -95 -313 -160 l-59 -45
-76 74 -77 73 15 28 c20 40 19 83 -5 122 -33 55 -108 69 -168 32z m121 -30
c36 -29 42 -64 18 -114 l-21 -41 160 -160 c88 -88 160 -165 160 -170 -1 -6
-19 -30 -40 -55 l-40 -45 -169 169 c-160 160 -171 169 -188 154 -46 -41 -122
-29 -143 22 -24 58 15 124 81 137 21 4 29 13 33 37 14 71 96 108 149 66z
m1765 -16 c13 -14 25 -39 29 -54 4 -22 12 -29 37 -34 69 -13 107 -97 67 -147
-30 -38 -65 -44 -115 -20 l-41 21 -163 -163 -163 -162 -45 50 -44 50 162 162
c152 152 161 163 146 180 -38 42 -30 119 15 142 34 17 89 5 115 -25z m-513
-853 c101 -13 208 -39 232 -56 15 -11 18 -27 16 -93 -3 -173 -71 -330 -198
-458 -134 -135 -284 -197 -475 -197 -191 0 -341 62 -475 197 -131 132 -195
285 -195 463 l0 84 33 13 c51 22 182 45 307 55 137 11 642 6 755 -8z m-845
-710 c0 -3 -92 -98 -205 -211 l-205 -205 21 -41 c24 -50 18 -85 -20 -115 -50
-40 -134 -2 -147 67 -4 24 -12 33 -33 37 -66 13 -105 79 -81 137 21 51 97 63
143 22 17 -15 30 -4 224 190 l206 206 49 -40 c26 -23 48 -44 48 -47z m1135
-121 l200 -200 41 21 c50 24 85 18 115 -20 40 -50 2 -134 -67 -147 -24 -4 -33
-12 -37 -33 -13 -66 -79 -105 -137 -81 -51 21 -63 97 -22 143 15 17 4 30 -192
226 l-207 208 48 41 c26 23 50 41 53 42 3 0 95 -90 205 -200z m-956 33 c31 -9
57 -17 58 -18 6 -3 -19 -75 -25 -75 -20 0 -73 43 -87 69 -25 48 -25 48 54 24z
m541 -1 c0 -19 -51 -72 -86 -90 -19 -10 -22 -7 -32 25 -6 21 -10 38 -8 40 4 4
109 41 119 42 4 1 7 -7 7 -17z m-347 -42 c25 0 27 -3 27 -45 0 -44 -1 -45 -32
-45 -35 0 -106 15 -115 23 -3 3 0 22 7 42 12 36 14 37 49 31 20 -3 48 -6 64
-6z m195 -27 c6 -21 8 -41 4 -45 -5 -5 -38 -11 -75 -15 l-67 -6 0 46 0 46 48
4 c26 2 54 4 63 5 10 1 20 -11 27 -35z m-390 -37 c29 -15 30 -17 19 -51 -5
-19 -13 -35 -17 -35 -23 0 -80 94 -80 131 0 22 0 22 24 -4 13 -14 37 -32 54
-41z m539 -19 c-24 -41 -64 -84 -70 -76 -2 2 -8 21 -14 41 -10 35 -9 37 17 48
15 6 41 25 56 42 27 28 29 28 32 8 2 -11 -8 -40 -21 -63z m-364 -34 l47 -6 0
-53 c0 -53 0 -54 -30 -54 -31 0 -137 33 -152 48 -4 4 -2 25 4 46 12 37 13 38
47 32 20 -4 57 -9 84 -13z m253 -25 c10 -28 10 -39 1 -46 -21 -16 -109 -42
-144 -42 l-33 0 0 53 0 54 68 10 c91 14 93 13 108 -29z m-372 -84 c162 -74
355 -44 470 73 l45 45 -11 -38 c-43 -158 -165 -257 -318 -258 -86 0 -158 27
-223 83 -36 32 -90 128 -103 186 -7 29 -6 29 40 -18 25 -27 71 -59 100 -73z"/>
<path d="M773 1261 c-92 -23 -164 -99 -185 -197 -21 -98 43 -210 144 -254 181
-78 378 99 318 286 -36 112 -169 191 -277 165z"/>
<path d="M1390 1260 c-74 -14 -145 -73 -174 -142 -20 -46 -21 -138 -3 -181 51
-120 199 -180 317 -126 58 26 87 53 116 111 29 56 32 139 8 196 -41 100 -158
163 -264 142z"/>
<path d="M1071 814 c-61 -51 -26 -144 54 -144 79 0 112 84 56 141 -36 36 -70
37 -110 3z"/>
</g>
</svg>
